<?xml version="1.0" encoding="utf-8" standalone="no"?>
<!DOCTYPE svg PUBLIC "-//W3C//DTD SVG 1.1//EN"
  "http://www.w3.org/Graphics/SVG/1.1/DTD/svg11.dtd">
<!-- Created with matplotlib (http://matplotlib.org/) -->
<svg height="288pt" version="1.1" viewBox="0 0 432 288" width="432pt" xmlns="http://www.w3.org/2000/svg" xmlns:xlink="http://www.w3.org/1999/xlink">
 <defs>
  <style type="text/css">
*{stroke-linecap:butt;stroke-linejoin:round;}
  </style>
 </defs>
 <g id="figure_1">
  <g id="patch_1">
   <path d="M 0 288 
L 432 288 
L 432 0 
L 0 0 
z
" style="fill:#ffffff;"/>
  </g>
  <g id="axes_1">
   <g id="patch_2">
    <path d="M 54 252 
L 388.8 252 
L 388.8 34.56 
L 54 34.56 
z
" style="fill:#ffffff;"/>
   </g>
   <g id="PolyCollection_1">
    <path clip-path="url(#pac43b97702)" d="M 89.419488 251.994957 
L 89.419488 252 
L 92.112025 252 
L 94.804562 252 
L 97.497099 252 
L 100.189636 252 
L 102.882174 252 
L 105.574711 252 
L 108.267248 252 
L 110.959785 252 
L 113.652322 252 
L 116.344859 252 
L 119.037397 252 
L 121.729934 252 
L 124.422471 252 
L 127.115008 252 
L 129.807545 252 
L 132.500082 252 
L 135.19262 252 
L 137.885157 252 
L 140.577694 252 
L 143.270231 252 
L 145.962768 252 
L 148.655305 252 
L 151.347842 252 
L 154.04038 252 
L 156.732917 252 
L 159.425454 252 
L 162.117991 252 
L 164.810528 252 
L 167.503065 252 
L 170.195603 252 
L 172.88814 252 
L 175.580677 252 
L 178.273214 252 
L 180.965751 252 
L 183.658288 252 
L 186.350826 252 
L 189.043363 252 
L 191.7359 252 
L 194.428437 252 
L 197.120974 252 
L 199.813511 252 
L 202.506049 252 
L 205.198586 252 
L 207.891123 252 
L 210.58366 252 
L 213.276197 252 
L 215.968734 252 
L 218.661271 252 
L 221.353809 252 
L 224.046346 252 
L 226.738883 252 
L 229.43142 252 
L 232.123957 252 
L 234.816494 252 
L 237.509032 252 
L 240.201569 252 
L 242.894106 252 
L 245.586643 252 
L 248.27918 252 
L 250.971717 252 
L 253.664255 252 
L 256.356792 252 
L 259.049329 252 
L 261.741866 252 
L 264.434403 252 
L 267.12694 252 
L 269.819478 252 
L 272.512015 252 
L 275.204552 252 
L 277.897089 252 
L 280.589626 252 
L 283.282163 252 
L 285.974701 252 
L 288.667238 252 
L 291.359775 252 
L 294.052312 252 
L 296.744849 252 
L 299.437386 252 
L 302.129923 252 
L 304.822461 252 
L 307.514998 252 
L 310.207535 252 
L 312.900072 252 
L 315.592609 252 
L 318.285146 252 
L 320.977684 252 
L 323.670221 252 
L 326.362758 252 
L 329.055295 252 
L 331.747832 252 
L 334.440369 252 
L 337.132907 252 
L 339.825444 252 
L 342.517981 252 
L 345.210518 252 
L 347.903055 252 
L 350.595592 252 
L 353.28813 252 
L 355.980667 252 
L 355.980667 251.994302 
L 355.980667 251.994302 
L 353.28813 251.985447 
L 350.595592 251.966338 
L 347.903055 251.929426 
L 345.210518 251.865693 
L 342.517981 251.767416 
L 339.825444 251.631956 
L 337.132907 251.464084 
L 334.440369 251.273711 
L 331.747832 251.067947 
L 329.055295 250.84085 
L 326.362758 250.567737 
L 323.670221 250.209636 
L 320.977684 249.726907 
L 318.285146 249.093957 
L 315.592609 248.305621 
L 312.900072 247.371832 
L 310.207535 246.30551 
L 307.514998 245.111784 
L 304.822461 243.782345 
L 302.129923 242.2922 
L 299.437386 240.594735 
L 296.744849 238.616605 
L 294.052312 236.260614 
L 291.359775 233.424786 
L 288.667238 230.036385 
L 285.974701 226.084452 
L 283.282163 221.621795 
L 280.589626 216.708269 
L 277.897089 211.291373 
L 275.204552 205.067596 
L 272.512015 197.419367 
L 269.819478 187.539921 
L 267.12694 174.801306 
L 264.434403 159.27944 
L 261.741866 142.183169 
L 259.049329 125.868169 
L 256.356792 113.265372 
L 253.664255 106.888325 
L 250.971717 107.890497 
L 248.27918 115.670281 
L 245.586643 128.213654 
L 242.894106 142.940215 
L 240.201569 157.581725 
L 237.509032 170.703401 
L 234.816494 181.757994 
L 232.123957 190.818862 
L 229.43142 198.231841 
L 226.738883 204.36316 
L 224.046346 209.495495 
L 221.353809 213.828373 
L 218.661271 217.51168 
L 215.968734 220.666828 
L 213.276197 223.389048 
L 210.58366 225.745297 
L 207.891123 227.779688 
L 205.198586 229.525394 
L 202.506049 231.013736 
L 199.813511 232.273857 
L 197.120974 233.32618 
L 194.428437 234.180989 
L 191.7359 234.851435 
L 189.043363 235.376933 
L 186.350826 235.838515 
L 183.658288 236.347494 
L 180.965751 237.006638 
L 178.273214 237.864732 
L 175.580677 238.891749 
L 172.88814 239.988517 
L 170.195603 241.02472 
L 167.503065 241.886904 
L 164.810528 242.517409 
L 162.117991 242.931041 
L 159.425454 243.204479 
L 156.732917 243.442865 
L 154.04038 243.737521 
L 151.347842 244.133756 
L 148.655305 244.623767 
L 145.962768 245.166257 
L 143.270231 245.718769 
L 140.577694 246.261454 
L 137.885157 246.798456 
L 135.19262 247.340357 
L 132.500082 247.884777 
L 129.807545 248.411563 
L 127.115008 248.895254 
L 124.422471 249.323037 
L 121.729934 249.702973 
L 119.037397 250.056563 
L 116.344859 250.402509 
L 113.652322 250.744143 
L 110.959785 251.068286 
L 108.267248 251.354089 
L 105.574711 251.584437 
L 102.882174 251.753038 
L 100.189636 251.864893 
L 97.497099 251.932137 
L 94.804562 251.968773 
L 92.112025 251.986864 
L 89.419488 251.994957 
z
" style="fill:#1f77b4;fill-opacity:0.25;"/>
   </g>
   <g id="PolyCollection_2">
    <path clip-path="url(#pac43b97702)" d="M 235.288166 251.582225 
L 235.288166 252 
L 236.685072 252 
L 238.081977 252 
L 239.478883 252 
L 240.875788 252 
L 242.272694 252 
L 243.6696 252 
L 245.066505 252 
L 246.463411 252 
L 247.860316 252 
L 249.257222 252 
L 250.654127 252 
L 252.051033 252 
L 253.447939 252 
L 254.844844 252 
L 256.24175 252 
L 257.638655 252 
L 259.035561 252 
L 260.432467 252 
L 261.829372 252 
L 263.226278 252 
L 264.623183 252 
L 266.020089 252 
L 267.416994 252 
L 268.8139 252 
L 270.210806 252 
L 271.607711 252 
L 273.004617 252 
L 274.401522 252 
L 275.798428 252 
L 277.195333 252 
L 278.592239 252 
L 279.989145 252 
L 281.38605 252 
L 282.782956 252 
L 284.179861 252 
L 285.576767 252 
L 286.973672 252 
L 288.370578 252 
L 289.767484 252 
L 291.164389 252 
L 292.561295 252 
L 293.9582 252 
L 295.355106 252 
L 296.752011 252 
L 298.148917 252 
L 299.545823 252 
L 300.942728 252 
L 302.339634 252 
L 303.736539 252 
L 305.133445 252 
L 306.530351 252 
L 307.927256 252 
L 309.324162 252 
L 310.721067 252 
L 312.117973 252 
L 313.514878 252 
L 314.911784 252 
L 316.30869 252 
L 317.705595 252 
L 319.102501 252 
L 320.499406 252 
L 321.896312 252 
L 323.293217 252 
L 324.690123 252 
L 326.087029 252 
L 327.483934 252 
L 328.88084 252 
L 330.277745 252 
L 331.674651 252 
L 333.071556 252 
L 334.468462 252 
L 335.865368 252 
L 337.262273 252 
L 338.659179 252 
L 340.056084 252 
L 341.45299 252 
L 342.849896 252 
L 344.246801 252 
L 345.643707 252 
L 347.040612 252 
L 348.437518 252 
L 349.834423 252 
L 351.231329 252 
L 352.628235 252 
L 354.02514 252 
L 355.422046 252 
L 356.818951 252 
L 358.215857 252 
L 359.612762 252 
L 361.009668 252 
L 362.406574 252 
L 363.803479 252 
L 365.200385 252 
L 366.59729 252 
L 367.994196 252 
L 369.391101 252 
L 370.788007 252 
L 372.184913 252 
L 373.581818 252 
L 373.581818 251.967895 
L 373.581818 251.967895 
L 372.184913 251.941347 
L 370.788007 251.89742 
L 369.391101 251.828247 
L 367.994196 251.724697 
L 366.59729 251.577532 
L 365.200385 251.37933 
L 363.803479 251.126963 
L 362.406574 250.824179 
L 361.009668 250.483495 
L 359.612762 250.126567 
L 358.215857 249.782342 
L 356.818951 249.482863 
L 355.422046 249.257284 
L 354.02514 249.125371 
L 352.628235 249.09217 
L 351.231329 249.145384 
L 349.834423 249.256426 
L 348.437518 249.385077 
L 347.040612 249.486749 
L 345.643707 249.520588 
L 344.246801 249.456511 
L 342.849896 249.279592 
L 341.45299 248.990993 
L 340.056084 248.605607 
L 338.659179 248.147367 
L 337.262273 247.643703 
L 335.865368 247.120521 
L 334.468462 246.598581 
L 333.071556 246.091297 
L 331.674651 245.603249 
L 330.277745 245.128482 
L 328.88084 244.648098 
L 327.483934 244.127717 
L 326.087029 243.516481 
L 324.690123 242.749848 
L 323.293217 241.757834 
L 321.896312 240.478578 
L 320.499406 238.874656 
L 319.102501 236.947418 
L 317.705595 234.743953 
L 316.30869 232.352681 
L 314.911784 229.886927 
L 313.514878 227.459962 
L 312.117973 225.158391 
L 310.721067 223.021841 
L 309.324162 221.035172 
L 307.927256 219.135419 
L 306.530351 217.230954 
L 305.133445 215.226713 
L 303.736539 213.048047 
L 302.339634 210.656954 
L 300.942728 208.057434 
L 299.545823 205.290054 
L 298.148917 202.418481 
L 296.752011 199.511997 
L 295.355106 196.628035 
L 293.9582 193.797796 
L 292.561295 191.016638 
L 291.164389 188.239604 
L 289.767484 185.381461 
L 288.370578 182.320281 
L 286.973672 178.903817 
L 285.576767 174.958605 
L 284.179861 170.302247 
L 282.782956 164.759383 
L 281.38605 158.181093 
L 279.989145 150.466214 
L 278.592239 141.581836 
L 277.195333 131.579823 
L 275.798428 120.606909 
L 274.401522 108.907627 
L 273.004617 96.821279 
L 271.607711 84.775325 
L 270.210806 73.277069 
L 268.8139 62.903301 
L 267.416994 54.284265 
L 266.020089 48.075889 
L 264.623183 44.914286 
L 263.226278 45.350463 
L 261.829372 49.770413 
L 260.432467 58.314061 
L 259.035561 70.812535 
L 257.638655 86.763746 
L 256.24175 105.359819 
L 254.844844 125.567957 
L 253.447939 146.252304 
L 252.051033 166.313172 
L 250.654127 184.815403 
L 249.257222 201.081105 
L 247.860316 214.732108 
L 246.463411 225.6806 
L 245.066505 234.078228 
L 243.6696 240.241204 
L 242.272694 244.57041 
L 240.875788 247.481897 
L 239.478883 249.356808 
L 238.081977 250.513056 
L 236.685072 251.195948 
L 235.288166 251.582225 
z
" style="fill:#ff7f0e;fill-opacity:0.25;"/>
   </g>
   <g id="PolyCollection_3">
    <path clip-path="url(#pac43b97702)" d="M 69.218182 251.96753 
L 69.218182 252 
L 71.499505 252 
L 73.780828 252 
L 76.062151 252 
L 78.343474 252 
L 80.624798 252 
L 82.906121 252 
L 85.187444 252 
L 87.468767 252 
L 89.75009 252 
L 92.031413 252 
L 94.312737 252 
L 96.59406 252 
L 98.875383 252 
L 101.156706 252 
L 103.438029 252 
L 105.719352 252 
L 108.000675 252 
L 110.281999 252 
L 112.563322 252 
L 114.844645 252 
L 117.125968 252 
L 119.407291 252 
L 121.688614 252 
L 123.969938 252 
L 126.251261 252 
L 128.532584 252 
L 130.813907 252 
L 133.09523 252 
L 135.376553 252 
L 137.657877 252 
L 139.9392 252 
L 142.220523 252 
L 144.501846 252 
L 146.783169 252 
L 149.064492 252 
L 151.345815 252 
L 153.627139 252 
L 155.908462 252 
L 158.189785 252 
L 160.471108 252 
L 162.752431 252 
L 165.033754 252 
L 167.315078 252 
L 169.596401 252 
L 171.877724 252 
L 174.159047 252 
L 176.44037 252 
L 178.721693 252 
L 181.003016 252 
L 183.28434 252 
L 185.565663 252 
L 187.846986 252 
L 190.128309 252 
L 192.409632 252 
L 194.690955 252 
L 196.972279 252 
L 199.253602 252 
L 201.534925 252 
L 203.816248 252 
L 206.097571 252 
L 208.378894 252 
L 210.660217 252 
L 212.941541 252 
L 215.222864 252 
L 217.504187 252 
L 219.78551 252 
L 222.066833 252 
L 224.348156 252 
L 226.62948 252 
L 228.910803 252 
L 231.192126 252 
L 233.473449 252 
L 235.754772 252 
L 238.036095 252 
L 240.317419 252 
L 242.598742 252 
L 244.880065 252 
L 247.161388 252 
L 249.442711 252 
L 251.724034 252 
L 254.005357 252 
L 256.286681 252 
L 258.568004 252 
L 260.849327 252 
L 263.13065 252 
L 265.411973 252 
L 267.693296 252 
L 269.97462 252 
L 272.255943 252 
L 274.537266 252 
L 276.818589 252 
L 279.099912 252 
L 281.381235 252 
L 283.662558 252 
L 285.943882 252 
L 288.225205 252 
L 290.506528 252 
L 292.787851 252 
L 295.069174 252 
L 295.069174 251.130869 
L 295.069174 251.130869 
L 292.787851 250.538701 
L 290.506528 249.613074 
L 288.225205 248.212029 
L 285.943882 246.159274 
L 283.662558 243.249206 
L 281.381235 239.259692 
L 279.099912 233.973981 
L 276.818589 227.21163 
L 274.537266 218.866206 
L 272.255943 208.944989 
L 269.97462 197.60375 
L 267.693296 185.168434 
L 265.411973 172.13605 
L 263.13065 159.149612 
L 260.849327 146.946284 
L 258.568004 136.28336 
L 256.286681 127.852 
L 254.005357 122.192313 
L 251.724034 119.624428 
L 249.442711 120.207954 
L 247.161388 123.737208 
L 244.880065 129.772835 
L 242.598742 137.70368 
L 240.317419 146.827437 
L 238.036095 156.436037 
L 235.754772 165.892156 
L 233.473449 174.686312 
L 231.192126 182.468767 
L 228.910803 189.055585 
L 226.62948 194.412634 
L 224.348156 198.624224 
L 222.066833 201.854247 
L 219.78551 204.307154 
L 217.504187 206.19445 
L 215.222864 207.710057 
L 212.941541 209.015584 
L 210.660217 210.234602 
L 208.378894 211.453766 
L 206.097571 212.728168 
L 203.816248 214.088414 
L 201.534925 215.547573 
L 199.253602 217.106913 
L 196.972279 218.760054 
L 194.690955 220.495667 
L 192.409632 222.299079 
L 190.128309 224.153144 
L 187.846986 226.038643 
L 185.565663 227.934394 
L 183.28434 229.81723 
L 181.003016 231.662051 
L 178.721693 233.442205 
L 176.44037 235.130453 
L 174.159047 236.700627 
L 171.877724 238.129896 
L 169.596401 239.401276 
L 167.315078 240.505865 
L 165.033754 241.44424 
L 162.752431 242.226597 
L 160.471108 242.871515 
L 158.189785 243.403539 
L 155.908462 243.850083 
L 153.627139 244.238257 
L 151.345815 244.59218 
L 149.064492 244.931154 
L 146.783169 245.268793 
L 144.501846 245.612966 
L 142.220523 245.966282 
L 139.9392 246.326831 
L 137.657877 246.688991 
L 135.376553 247.044273 
L 133.09523 247.382289 
L 130.813907 247.691952 
L 128.532584 247.962979 
L 126.251261 248.18759 
L 123.969938 248.362161 
L 121.688614 248.488489 
L 119.407291 248.574279 
L 117.125968 248.63264 
L 114.844645 248.680542 
L 112.563322 248.736453 
L 110.281999 248.817588 
L 108.000675 248.937298 
L 105.719352 249.103118 
L 103.438029 249.315841 
L 101.156706 249.569745 
L 98.875383 249.853863 
L 96.59406 250.153964 
L 94.312737 250.454816 
L 92.031413 250.742296 
L 89.75009 251.005001 
L 87.468767 251.235171 
L 85.187444 251.42892 
L 82.906121 251.585859 
L 80.624798 251.708348 
L 78.343474 251.800561 
L 76.062151 251.867578 
L 73.780828 251.914632 
L 71.499505 251.946567 
L 69.218182 251.96753 
z
" style="fill:#2ca02c;fill-opacity:0.25;"/>
   </g>
   <g id="matplotlib.axis_1">
    <g id="xtick_1">
     <g id="line2d_1">
      <defs>
       <path d="M 0 0 
L 0 3.5 
" id="m64b5a3a099" style="stroke:#000000;stroke-width:0.8;"/>
      </defs>
      <g>
       <use style="stroke:#000000;stroke-width:0.8;" x="69.171602" xlink:href="#m64b5a3a099" y="252"/>
      </g>
     </g>
     <g id="text_1">
      <!-- −1.0 -->
      <defs>
       <path d="M 10.59375 35.5 
L 73.1875 35.5 
L 73.1875 27.203125 
L 10.59375 27.203125 
z
" id="DejaVuSans-2212"/>
       <path d="M 12.40625 8.296875 
L 28.515625 8.296875 
L 28.515625 63.921875 
L 10.984375 60.40625 
L 10.984375 69.390625 
L 28.421875 72.90625 
L 38.28125 72.90625 
L 38.28125 8.296875 
L 54.390625 8.296875 
L 54.390625 0 
L 12.40625 0 
z
" id="DejaVuSans-31"/>
       <path d="M 10.6875 12.40625 
L 21 12.40625 
L 21 0 
L 10.6875 0 
z
" id="DejaVuSans-2e"/>
       <path d="M 31.78125 66.40625 
Q 24.171875 66.40625 20.328125 58.90625 
Q 16.5 51.421875 16.5 36.375 
Q 16.5 21.390625 20.328125 13.890625 
Q 24.171875 6.390625 31.78125 6.390625 
Q 39.453125 6.390625 43.28125 13.890625 
Q 47.125 21.390625 47.125 36.375 
Q 47.125 51.421875 43.28125 58.90625 
Q 39.453125 66.40625 31.78125 66.40625 
z
M 31.78125 74.21875 
Q 44.046875 74.21875 50.515625 64.515625 
Q 56.984375 54.828125 56.984375 36.375 
Q 56.984375 17.96875 50.515625 8.265625 
Q 44.046875 -1.421875 31.78125 -1.421875 
Q 19.53125 -1.421875 13.0625 8.265625 
Q 6.59375 17.96875 6.59375 36.375 
Q 6.59375 54.828125 13.0625 64.515625 
Q 19.53125 74.21875 31.78125 74.21875 
z
" id="DejaVuSans-30"/>
      </defs>
      <g transform="translate(57.030195 266.598437)scale(0.1 -0.1)">
       <use xlink:href="#DejaVuSans-2212"/>
       <use x="83.789062" xlink:href="#DejaVuSans-31"/>
       <use x="147.412109" xlink:href="#DejaVuSans-2e"/>
       <use x="179.199219" xlink:href="#DejaVuSans-30"/>
      </g>
     </g>
    </g>
    <g id="xtick_2">
     <g id="line2d_2">
      <g>
       <use style="stroke:#000000;stroke-width:0.8;" x="106.427366" xlink:href="#m64b5a3a099" y="252"/>
      </g>
     </g>
     <g id="text_2">
      <!-- −0.8 -->
      <defs>
       <path d="M 31.78125 34.625 
Q 24.75 34.625 20.71875 30.859375 
Q 16.703125 27.09375 16.703125 20.515625 
Q 16.703125 13.921875 20.71875 10.15625 
Q 24.75 6.390625 31.78125 6.390625 
Q 38.8125 6.390625 42.859375 10.171875 
Q 46.921875 13.96875 46.921875 20.515625 
Q 46.921875 27.09375 42.890625 30.859375 
Q 38.875 34.625 31.78125 34.625 
z
M 21.921875 38.8125 
Q 15.578125 40.375 12.03125 44.71875 
Q 8.5 49.078125 8.5 55.328125 
Q 8.5 64.0625 14.71875 69.140625 
Q 20.953125 74.21875 31.78125 74.21875 
Q 42.671875 74.21875 48.875 69.140625 
Q 55.078125 64.0625 55.078125 55.328125 
Q 55.078125 49.078125 51.53125 44.71875 
Q 48 40.375 41.703125 38.8125 
Q 48.828125 37.15625 52.796875 32.3125 
Q 56.78125 27.484375 56.78125 20.515625 
Q 56.78125 9.90625 50.3125 4.234375 
Q 43.84375 -1.421875 31.78125 -1.421875 
Q 19.734375 -1.421875 13.25 4.234375 
Q 6.78125 9.90625 6.78125 20.515625 
Q 6.78125 27.484375 10.78125 32.3125 
Q 14.796875 37.15625 21.921875 38.8125 
z
M 18.3125 54.390625 
Q 18.3125 48.734375 21.84375 45.5625 
Q 25.390625 42.390625 31.78125 42.390625 
Q 38.140625 42.390625 41.71875 45.5625 
Q 45.3125 48.734375 45.3125 54.390625 
Q 45.3125 60.0625 41.71875 63.234375 
Q 38.140625 66.40625 31.78125 66.40625 
Q 25.390625 66.40625 21.84375 63.234375 
Q 18.3125 60.0625 18.3125 54.390625 
z
" id="DejaVuSans-38"/>
      </defs>
      <g transform="translate(94.28596 266.598437)scale(0.1 -0.1)">
       <use xlink:href="#DejaVuSans-2212"/>
       <use x="83.789062" xlink:href="#DejaVuSans-30"/>
       <use x="147.412109" xlink:href="#DejaVuSans-2e"/>
       <use x="179.199219" xlink:href="#DejaVuSans-38"/>
      </g>
     </g>
    </g>
    <g id="xtick_3">
     <g id="line2d_3">
      <g>
       <use style="stroke:#000000;stroke-width:0.8;" x="143.683131" xlink:href="#m64b5a3a099" y="252"/>
      </g>
     </g>
     <g id="text_3">
      <!-- −0.6 -->
      <defs>
       <path d="M 33.015625 40.375 
Q 26.375 40.375 22.484375 35.828125 
Q 18.609375 31.296875 18.609375 23.390625 
Q 18.609375 15.53125 22.484375 10.953125 
Q 26.375 6.390625 33.015625 6.390625 
Q 39.65625 6.390625 43.53125 10.953125 
Q 47.40625 15.53125 47.40625 23.390625 
Q 47.40625 31.296875 43.53125 35.828125 
Q 39.65625 40.375 33.015625 40.375 
z
M 52.59375 71.296875 
L 52.59375 62.3125 
Q 48.875 64.0625 45.09375 64.984375 
Q 41.3125 65.921875 37.59375 65.921875 
Q 27.828125 65.921875 22.671875 59.328125 
Q 17.53125 52.734375 16.796875 39.40625 
Q 19.671875 43.65625 24.015625 45.921875 
Q 28.375 48.1875 33.59375 48.1875 
Q 44.578125 48.1875 50.953125 41.515625 
Q 57.328125 34.859375 57.328125 23.390625 
Q 57.328125 12.15625 50.6875 5.359375 
Q 44.046875 -1.421875 33.015625 -1.421875 
Q 20.359375 -1.421875 13.671875 8.265625 
Q 6.984375 17.96875 6.984375 36.375 
Q 6.984375 53.65625 15.1875 63.9375 
Q 23.390625 74.21875 37.203125 74.21875 
Q 40.921875 74.21875 44.703125 73.484375 
Q 48.484375 72.75 52.59375 71.296875 
z
" id="DejaVuSans-36"/>
      </defs>
      <g transform="translate(131.541725 266.598437)scale(0.1 -0.1)">
       <use xlink:href="#DejaVuSans-2212"/>
       <use x="83.789062" xlink:href="#DejaVuSans-30"/>
       <use x="147.412109" xlink:href="#DejaVuSans-2e"/>
       <use x="179.199219" xlink:href="#DejaVuSans-36"/>
      </g>
     </g>
    </g>
    <g id="xtick_4">
     <g id="line2d_4">
      <g>
       <use style="stroke:#000000;stroke-width:0.8;" x="180.938896" xlink:href="#m64b5a3a099" y="252"/>
      </g>
     </g>
     <g id="text_4">
      <!-- −0.4 -->
      <defs>
       <path d="M 37.796875 64.3125 
L 12.890625 25.390625 
L 37.796875 25.390625 
z
M 35.203125 72.90625 
L 47.609375 72.90625 
L 47.609375 25.390625 
L 58.015625 25.390625 
L 58.015625 17.1875 
L 47.609375 17.1875 
L 47.609375 0 
L 37.796875 0 
L 37.796875 17.1875 
L 4.890625 17.1875 
L 4.890625 26.703125 
z
" id="DejaVuSans-34"/>
      </defs>
      <g transform="translate(168.797489 266.598437)scale(0.1 -0.1)">
       <use xlink:href="#DejaVuSans-2212"/>
       <use x="83.789062" xlink:href="#DejaVuSans-30"/>
       <use x="147.412109" xlink:href="#DejaVuSans-2e"/>
       <use x="179.199219" xlink:href="#DejaVuSans-34"/>
      </g>
     </g>
    </g>
    <g id="xtick_5">
     <g id="line2d_5">
      <g>
       <use style="stroke:#000000;stroke-width:0.8;" x="218.19466" xlink:href="#m64b5a3a099" y="252"/>
      </g>
     </g>
     <g id="text_5">
      <!-- −0.2 -->
      <defs>
       <path d="M 19.1875 8.296875 
L 53.609375 8.296875 
L 53.609375 0 
L 7.328125 0 
L 7.328125 8.296875 
Q 12.9375 14.109375 22.625 23.890625 
Q 32.328125 33.6875 34.8125 36.53125 
Q 39.546875 41.84375 41.421875 45.53125 
Q 43.3125 49.21875 43.3125 52.78125 
Q 43.3125 58.59375 39.234375 62.25 
Q 35.15625 65.921875 28.609375 65.921875 
Q 23.96875 65.921875 18.8125 64.3125 
Q 13.671875 62.703125 7.8125 59.421875 
L 7.8125 69.390625 
Q 13.765625 71.78125 18.9375 73 
Q 24.125 74.21875 28.421875 74.21875 
Q 39.75 74.21875 46.484375 68.546875 
Q 53.21875 62.890625 53.21875 53.421875 
Q 53.21875 48.921875 51.53125 44.890625 
Q 49.859375 40.875 45.40625 35.40625 
Q 44.1875 33.984375 37.640625 27.21875 
Q 31.109375 20.453125 19.1875 8.296875 
z
" id="DejaVuSans-32"/>
      </defs>
      <g transform="translate(206.053254 266.598437)scale(0.1 -0.1)">
       <use xlink:href="#DejaVuSans-2212"/>
       <use x="83.789062" xlink:href="#DejaVuSans-30"/>
       <use x="147.412109" xlink:href="#DejaVuSans-2e"/>
       <use x="179.199219" xlink:href="#DejaVuSans-32"/>
      </g>
     </g>
    </g>
    <g id="xtick_6">
     <g id="line2d_6">
      <g>
       <use style="stroke:#000000;stroke-width:0.8;" x="255.450425" xlink:href="#m64b5a3a099" y="252"/>
      </g>
     </g>
     <g id="text_6">
      <!-- 0.0 -->
      <g transform="translate(247.498863 266.598437)scale(0.1 -0.1)">
       <use xlink:href="#DejaVuSans-30"/>
       <use x="63.623047" xlink:href="#DejaVuSans-2e"/>
       <use x="95.410156" xlink:href="#DejaVuSans-30"/>
      </g>
     </g>
    </g>
    <g id="xtick_7">
     <g id="line2d_7">
      <g>
       <use style="stroke:#000000;stroke-width:0.8;" x="292.70619" xlink:href="#m64b5a3a099" y="252"/>
      </g>
     </g>
     <g id="text_7">
      <!-- 0.2 -->
      <g transform="translate(284.754627 266.598437)scale(0.1 -0.1)">
       <use xlink:href="#DejaVuSans-30"/>
       <use x="63.623047" xlink:href="#DejaVuSans-2e"/>
       <use x="95.410156" xlink:href="#DejaVuSans-32"/>
      </g>
     </g>
    </g>
    <g id="xtick_8">
     <g id="line2d_8">
      <g>
       <use style="stroke:#000000;stroke-width:0.8;" x="329.961955" xlink:href="#m64b5a3a099" y="252"/>
      </g>
     </g>
     <g id="text_8">
      <!-- 0.4 -->
      <g transform="translate(322.010392 266.598437)scale(0.1 -0.1)">
       <use xlink:href="#DejaVuSans-30"/>
       <use x="63.623047" xlink:href="#DejaVuSans-2e"/>
       <use x="95.410156" xlink:href="#DejaVuSans-34"/>
      </g>
     </g>
    </g>
    <g id="xtick_9">
     <g id="line2d_9">
      <g>
       <use style="stroke:#000000;stroke-width:0.8;" x="367.217719" xlink:href="#m64b5a3a099" y="252"/>
      </g>
     </g>
     <g id="text_9">
      <!-- 0.6 -->
      <g transform="translate(359.266157 266.598437)scale(0.1 -0.1)">
       <use xlink:href="#DejaVuSans-30"/>
       <use x="63.623047" xlink:href="#DejaVuSans-2e"/>
       <use x="95.410156" xlink:href="#DejaVuSans-36"/>
      </g>
     </g>
    </g>
   </g>
   <g id="matplotlib.axis_2">
    <g id="ytick_1"/>
    <g id="ytick_2"/>
    <g id="ytick_3"/>
    <g id="ytick_4"/>
    <g id="ytick_5"/>
    <g id="ytick_6"/>
   </g>
   <g id="line2d_10">
    <path clip-path="url(#pac43b97702)" d="M 89.419488 251.994957 
L 92.112025 251.986864 
L 94.804562 251.968773 
L 97.497099 251.932137 
L 100.189636 251.864893 
L 102.882174 251.753038 
L 105.574711 251.584437 
L 108.267248 251.354089 
L 110.959785 251.068286 
L 113.652322 250.744143 
L 116.344859 250.402509 
L 119.037397 250.056563 
L 121.729934 249.702973 
L 124.422471 249.323037 
L 127.115008 248.895254 
L 129.807545 248.411563 
L 132.500082 247.884777 
L 135.19262 247.340357 
L 137.885157 246.798456 
L 140.577694 246.261454 
L 143.270231 245.718769 
L 145.962768 245.166257 
L 148.655305 244.623767 
L 151.347842 244.133756 
L 154.04038 243.737521 
L 156.732917 243.442865 
L 159.425454 243.204479 
L 162.117991 242.931041 
L 164.810528 242.517409 
L 167.503065 241.886904 
L 170.195603 241.02472 
L 172.88814 239.988517 
L 175.580677 238.891749 
L 178.273214 237.864732 
L 180.965751 237.006638 
L 183.658288 236.347494 
L 186.350826 235.838515 
L 189.043363 235.376933 
L 191.7359 234.851435 
L 194.428437 234.180989 
L 197.120974 233.32618 
L 199.813511 232.273857 
L 202.506049 231.013736 
L 205.198586 229.525394 
L 207.891123 227.779688 
L 210.58366 225.745297 
L 213.276197 223.389048 
L 215.968734 220.666828 
L 218.661271 217.51168 
L 221.353809 213.828373 
L 224.046346 209.495495 
L 226.738883 204.36316 
L 229.43142 198.231841 
L 232.123957 190.818862 
L 234.816494 181.757994 
L 237.509032 170.703401 
L 240.201569 157.581725 
L 242.894106 142.940215 
L 245.586643 128.213654 
L 248.27918 115.670281 
L 250.971717 107.890497 
L 253.664255 106.888325 
L 256.356792 113.265372 
L 259.049329 125.868169 
L 261.741866 142.183169 
L 264.434403 159.27944 
L 267.12694 174.801306 
L 269.819478 187.539921 
L 272.512015 197.419367 
L 275.204552 205.067596 
L 277.897089 211.291373 
L 280.589626 216.708269 
L 283.282163 221.621795 
L 285.974701 226.084452 
L 288.667238 230.036385 
L 291.359775 233.424786 
L 294.052312 236.260614 
L 296.744849 238.616605 
L 299.437386 240.594735 
L 302.129923 242.2922 
L 304.822461 243.782345 
L 307.514998 245.111784 
L 310.207535 246.30551 
L 312.900072 247.371832 
L 315.592609 248.305621 
L 318.285146 249.093957 
L 320.977684 249.726907 
L 323.670221 250.209636 
L 326.362758 250.567737 
L 329.055295 250.84085 
L 331.747832 251.067947 
L 334.440369 251.273711 
L 337.132907 251.464084 
L 339.825444 251.631956 
L 342.517981 251.767416 
L 345.210518 251.865693 
L 347.903055 251.929426 
L 350.595592 251.966338 
L 353.28813 251.985447 
L 355.980667 251.994302 
" style="fill:none;stroke:#1f77b4;stroke-linecap:square;stroke-width:3;"/>
   </g>
   <g id="line2d_11">
    <path clip-path="url(#pac43b97702)" d="M 235.288166 251.582225 
L 236.685072 251.195948 
L 238.081977 250.513056 
L 239.478883 249.356808 
L 240.875788 247.481897 
L 242.272694 244.57041 
L 243.6696 240.241204 
L 245.066505 234.078228 
L 246.463411 225.6806 
L 247.860316 214.732108 
L 249.257222 201.081105 
L 250.654127 184.815403 
L 252.051033 166.313172 
L 253.447939 146.252304 
L 254.844844 125.567957 
L 256.24175 105.359819 
L 257.638655 86.763746 
L 259.035561 70.812535 
L 260.432467 58.314061 
L 261.829372 49.770413 
L 263.226278 45.350463 
L 264.623183 44.914286 
L 266.020089 48.075889 
L 267.416994 54.284265 
L 268.8139 62.903301 
L 270.210806 73.277069 
L 271.607711 84.775325 
L 273.004617 96.821279 
L 274.401522 108.907627 
L 275.798428 120.606909 
L 277.195333 131.579823 
L 278.592239 141.581836 
L 279.989145 150.466214 
L 281.38605 158.181093 
L 282.782956 164.759383 
L 284.179861 170.302247 
L 285.576767 174.958605 
L 286.973672 178.903817 
L 288.370578 182.320281 
L 289.767484 185.381461 
L 291.164389 188.239604 
L 292.561295 191.016638 
L 293.9582 193.797796 
L 295.355106 196.628035 
L 296.752011 199.511997 
L 298.148917 202.418481 
L 299.545823 205.290054 
L 300.942728 208.057434 
L 302.339634 210.656954 
L 303.736539 213.048047 
L 305.133445 215.226713 
L 306.530351 217.230954 
L 307.927256 219.135419 
L 309.324162 221.035172 
L 310.721067 223.021841 
L 312.117973 225.158391 
L 313.514878 227.459962 
L 314.911784 229.886927 
L 316.30869 232.352681 
L 317.705595 234.743953 
L 319.102501 236.947418 
L 320.499406 238.874656 
L 321.896312 240.478578 
L 323.293217 241.757834 
L 324.690123 242.749848 
L 326.087029 243.516481 
L 327.483934 244.127717 
L 328.88084 244.648098 
L 330.277745 245.128482 
L 331.674651 245.603249 
L 333.071556 246.091297 
L 334.468462 246.598581 
L 335.865368 247.120521 
L 337.262273 247.643703 
L 338.659179 248.147367 
L 340.056084 248.605607 
L 341.45299 248.990993 
L 342.849896 249.279592 
L 344.246801 249.456511 
L 345.643707 249.520588 
L 347.040612 249.486749 
L 348.437518 249.385077 
L 349.834423 249.256426 
L 351.231329 249.145384 
L 352.628235 249.09217 
L 354.02514 249.125371 
L 355.422046 249.257284 
L 356.818951 249.482863 
L 358.215857 249.782342 
L 359.612762 250.126567 
L 361.009668 250.483495 
L 362.406574 250.824179 
L 363.803479 251.126963 
L 365.200385 251.37933 
L 366.59729 251.577532 
L 367.994196 251.724697 
L 369.391101 251.828247 
L 370.788007 251.89742 
L 372.184913 251.941347 
L 373.581818 251.967895 
" style="fill:none;stroke:#ff7f0e;stroke-linecap:square;stroke-width:3;"/>
   </g>
   <g id="line2d_12">
    <path clip-path="url(#pac43b97702)" d="M 69.218182 251.96753 
L 71.499505 251.946567 
L 73.780828 251.914632 
L 76.062151 251.867578 
L 78.343474 251.800561 
L 80.624798 251.708348 
L 82.906121 251.585859 
L 85.187444 251.42892 
L 87.468767 251.235171 
L 89.75009 251.005001 
L 92.031413 250.742296 
L 94.312737 250.454816 
L 96.59406 250.153964 
L 98.875383 249.853863 
L 101.156706 249.569745 
L 103.438029 249.315841 
L 105.719352 249.103118 
L 108.000675 248.937298 
L 110.281999 248.817588 
L 112.563322 248.736453 
L 114.844645 248.680542 
L 117.125968 248.63264 
L 119.407291 248.574279 
L 121.688614 248.488489 
L 123.969938 248.362161 
L 126.251261 248.18759 
L 128.532584 247.962979 
L 130.813907 247.691952 
L 133.09523 247.382289 
L 135.376553 247.044273 
L 137.657877 246.688991 
L 139.9392 246.326831 
L 142.220523 245.966282 
L 144.501846 245.612966 
L 146.783169 245.268793 
L 149.064492 244.931154 
L 151.345815 244.59218 
L 153.627139 244.238257 
L 155.908462 243.850083 
L 158.189785 243.403539 
L 160.471108 242.871515 
L 162.752431 242.226597 
L 165.033754 241.44424 
L 167.315078 240.505865 
L 169.596401 239.401276 
L 171.877724 238.129896 
L 174.159047 236.700627 
L 176.44037 235.130453 
L 178.721693 233.442205 
L 181.003016 231.662051 
L 183.28434 229.81723 
L 185.565663 227.934394 
L 187.846986 226.038643 
L 190.128309 224.153144 
L 192.409632 222.299079 
L 194.690955 220.495667 
L 196.972279 218.760054 
L 199.253602 217.106913 
L 201.534925 215.547573 
L 203.816248 214.088414 
L 206.097571 212.728168 
L 208.378894 211.453766 
L 210.660217 210.234602 
L 212.941541 209.015584 
L 215.222864 207.710057 
L 217.504187 206.19445 
L 219.78551 204.307154 
L 222.066833 201.854247 
L 224.348156 198.624224 
L 226.62948 194.412634 
L 228.910803 189.055585 
L 231.192126 182.468767 
L 233.473449 174.686312 
L 235.754772 165.892156 
L 238.036095 156.436037 
L 240.317419 146.827437 
L 242.598742 137.70368 
L 244.880065 129.772835 
L 247.161388 123.737208 
L 249.442711 120.207954 
L 251.724034 119.624428 
L 254.005357 122.192313 
L 256.286681 127.852 
L 258.568004 136.28336 
L 260.849327 146.946284 
L 263.13065 159.149612 
L 265.411973 172.13605 
L 267.693296 185.168434 
L 269.97462 197.60375 
L 272.255943 208.944989 
L 274.537266 218.866206 
L 276.818589 227.21163 
L 279.099912 233.973981 
L 281.381235 239.259692 
L 283.662558 243.249206 
L 285.943882 246.159274 
L 288.225205 248.212029 
L 290.506528 249.613074 
L 292.787851 250.538701 
L 295.069174 251.130869 
" style="fill:none;stroke:#2ca02c;stroke-linecap:square;stroke-width:3;"/>
   </g>
   <g id="patch_3">
    <path d="M 54 252 
L 388.8 252 
" style="fill:none;stroke:#000000;stroke-linecap:square;stroke-linejoin:miter;stroke-width:0.8;"/>
   </g>
   <g id="legend_1">
    <g id="patch_4">
     <path d="M 304.91875 86.594375 
L 381.8 86.594375 
Q 383.8 86.594375 383.8 84.594375 
L 383.8 41.56 
Q 383.8 39.56 381.8 39.56 
L 304.91875 39.56 
Q 302.91875 39.56 302.91875 41.56 
L 302.91875 84.594375 
Q 302.91875 86.594375 304.91875 86.594375 
z
" style="fill:#ffffff;opacity:0.8;stroke:#cccccc;stroke-linejoin:miter;"/>
    </g>
    <g id="line2d_13">
     <path d="M 306.91875 47.658438 
L 326.91875 47.658438 
" style="fill:none;stroke:#1f77b4;stroke-linecap:square;stroke-width:3;"/>
    </g>
    <g id="line2d_14"/>
    <g id="text_10">
     <!-- Neutral -->
     <defs>
      <path d="M 9.8125 72.90625 
L 23.09375 72.90625 
L 55.421875 11.921875 
L 55.421875 72.90625 
L 64.984375 72.90625 
L 64.984375 0 
L 51.703125 0 
L 19.390625 60.984375 
L 19.390625 0 
L 9.8125 0 
z
" id="DejaVuSans-4e"/>
      <path d="M 56.203125 29.59375 
L 56.203125 25.203125 
L 14.890625 25.203125 
Q 15.484375 15.921875 20.484375 11.0625 
Q 25.484375 6.203125 34.421875 6.203125 
Q 39.59375 6.203125 44.453125 7.46875 
Q 49.3125 8.734375 54.109375 11.28125 
L 54.109375 2.78125 
Q 49.265625 0.734375 44.1875 -0.34375 
Q 39.109375 -1.421875 33.890625 -1.421875 
Q 20.796875 -1.421875 13.15625 6.1875 
Q 5.515625 13.8125 5.515625 26.8125 
Q 5.515625 40.234375 12.765625 48.109375 
Q 20.015625 56 32.328125 56 
Q 43.359375 56 49.78125 48.890625 
Q 56.203125 41.796875 56.203125 29.59375 
z
M 47.21875 32.234375 
Q 47.125 39.59375 43.09375 43.984375 
Q 39.0625 48.390625 32.421875 48.390625 
Q 24.90625 48.390625 20.390625 44.140625 
Q 15.875 39.890625 15.1875 32.171875 
z
" id="DejaVuSans-65"/>
      <path d="M 8.5 21.578125 
L 8.5 54.6875 
L 17.484375 54.6875 
L 17.484375 21.921875 
Q 17.484375 14.15625 20.5 10.265625 
Q 23.53125 6.390625 29.59375 6.390625 
Q 36.859375 6.390625 41.078125 11.03125 
Q 45.3125 15.671875 45.3125 23.6875 
L 45.3125 54.6875 
L 54.296875 54.6875 
L 54.296875 0 
L 45.3125 0 
L 45.3125 8.40625 
Q 42.046875 3.421875 37.71875 1 
Q 33.40625 -1.421875 27.6875 -1.421875 
Q 18.265625 -1.421875 13.375 4.4375 
Q 8.5 10.296875 8.5 21.578125 
z
M 31.109375 56 
z
" id="DejaVuSans-75"/>
      <path d="M 18.3125 70.21875 
L 18.3125 54.6875 
L 36.8125 54.6875 
L 36.8125 47.703125 
L 18.3125 47.703125 
L 18.3125 18.015625 
Q 18.3125 11.328125 20.140625 9.421875 
Q 21.96875 7.515625 27.59375 7.515625 
L 36.8125 7.515625 
L 36.8125 0 
L 27.59375 0 
Q 17.1875 0 13.234375 3.875 
Q 9.28125 7.765625 9.28125 18.015625 
L 9.28125 47.703125 
L 2.6875 47.703125 
L 2.6875 54.6875 
L 9.28125 54.6875 
L 9.28125 70.21875 
z
" id="DejaVuSans-74"/>
      <path d="M 41.109375 46.296875 
Q 39.59375 47.171875 37.8125 47.578125 
Q 36.03125 48 33.890625 48 
Q 26.265625 48 22.1875 43.046875 
Q 18.109375 38.09375 18.109375 28.8125 
L 18.109375 0 
L 9.078125 0 
L 9.078125 54.6875 
L 18.109375 54.6875 
L 18.109375 46.1875 
Q 20.953125 51.171875 25.484375 53.578125 
Q 30.03125 56 36.53125 56 
Q 37.453125 56 38.578125 55.875 
Q 39.703125 55.765625 41.0625 55.515625 
z
" id="DejaVuSans-72"/>
      <path d="M 34.28125 27.484375 
Q 23.390625 27.484375 19.1875 25 
Q 14.984375 22.515625 14.984375 16.5 
Q 14.984375 11.71875 18.140625 8.90625 
Q 21.296875 6.109375 26.703125 6.109375 
Q 34.1875 6.109375 38.703125 11.40625 
Q 43.21875 16.703125 43.21875 25.484375 
L 43.21875 27.484375 
z
M 52.203125 31.203125 
L 52.203125 0 
L 43.21875 0 
L 43.21875 8.296875 
Q 40.140625 3.328125 35.546875 0.953125 
Q 30.953125 -1.421875 24.3125 -1.421875 
Q 15.921875 -1.421875 10.953125 3.296875 
Q 6 8.015625 6 15.921875 
Q 6 25.140625 12.171875 29.828125 
Q 18.359375 34.515625 30.609375 34.515625 
L 43.21875 34.515625 
L 43.21875 35.40625 
Q 43.21875 41.609375 39.140625 45 
Q 35.0625 48.390625 27.6875 48.390625 
Q 23 48.390625 18.546875 47.265625 
Q 14.109375 46.140625 10.015625 43.890625 
L 10.015625 52.203125 
Q 14.9375 54.109375 19.578125 55.046875 
Q 24.21875 56 28.609375 56 
Q 40.484375 56 46.34375 49.84375 
Q 52.203125 43.703125 52.203125 31.203125 
z
" id="DejaVuSans-61"/>
      <path d="M 9.421875 75.984375 
L 18.40625 75.984375 
L 18.40625 0 
L 9.421875 0 
z
" id="DejaVuSans-6c"/>
     </defs>
     <g transform="translate(334.91875 51.158438)scale(0.1 -0.1)">
      <use xlink:href="#DejaVuSans-4e"/>
      <use x="74.804688" xlink:href="#DejaVuSans-65"/>
      <use x="136.328125" xlink:href="#DejaVuSans-75"/>
      <use x="199.707031" xlink:href="#DejaVuSans-74"/>
      <use x="238.916016" xlink:href="#DejaVuSans-72"/>
      <use x="280.029297" xlink:href="#DejaVuSans-61"/>
      <use x="341.308594" xlink:href="#DejaVuSans-6c"/>
     </g>
    </g>
    <g id="line2d_15">
     <path d="M 306.91875 62.336563 
L 326.91875 62.336563 
" style="fill:none;stroke:#ff7f0e;stroke-linecap:square;stroke-width:3;"/>
    </g>
    <g id="line2d_16"/>
    <g id="text_11">
     <!-- Positive -->
     <defs>
      <path d="M 19.671875 64.796875 
L 19.671875 37.40625 
L 32.078125 37.40625 
Q 38.96875 37.40625 42.71875 40.96875 
Q 46.484375 44.53125 46.484375 51.125 
Q 46.484375 57.671875 42.71875 61.234375 
Q 38.96875 64.796875 32.078125 64.796875 
z
M 9.8125 72.90625 
L 32.078125 72.90625 
Q 44.34375 72.90625 50.609375 67.359375 
Q 56.890625 61.8125 56.890625 51.125 
Q 56.890625 40.328125 50.609375 34.8125 
Q 44.34375 29.296875 32.078125 29.296875 
L 19.671875 29.296875 
L 19.671875 0 
L 9.8125 0 
z
" id="DejaVuSans-50"/>
      <path d="M 30.609375 48.390625 
Q 23.390625 48.390625 19.1875 42.75 
Q 14.984375 37.109375 14.984375 27.296875 
Q 14.984375 17.484375 19.15625 11.84375 
Q 23.34375 6.203125 30.609375 6.203125 
Q 37.796875 6.203125 41.984375 11.859375 
Q 46.1875 17.53125 46.1875 27.296875 
Q 46.1875 37.015625 41.984375 42.703125 
Q 37.796875 48.390625 30.609375 48.390625 
z
M 30.609375 56 
Q 42.328125 56 49.015625 48.375 
Q 55.71875 40.765625 55.71875 27.296875 
Q 55.71875 13.875 49.015625 6.21875 
Q 42.328125 -1.421875 30.609375 -1.421875 
Q 18.84375 -1.421875 12.171875 6.21875 
Q 5.515625 13.875 5.515625 27.296875 
Q 5.515625 40.765625 12.171875 48.375 
Q 18.84375 56 30.609375 56 
z
" id="DejaVuSans-6f"/>
      <path d="M 44.28125 53.078125 
L 44.28125 44.578125 
Q 40.484375 46.53125 36.375 47.5 
Q 32.28125 48.484375 27.875 48.484375 
Q 21.1875 48.484375 17.84375 46.4375 
Q 14.5 44.390625 14.5 40.28125 
Q 14.5 37.15625 16.890625 35.375 
Q 19.28125 33.59375 26.515625 31.984375 
L 29.59375 31.296875 
Q 39.15625 29.25 43.1875 25.515625 
Q 47.21875 21.78125 47.21875 15.09375 
Q 47.21875 7.46875 41.1875 3.015625 
Q 35.15625 -1.421875 24.609375 -1.421875 
Q 20.21875 -1.421875 15.453125 -0.5625 
Q 10.6875 0.296875 5.421875 2 
L 5.421875 11.28125 
Q 10.40625 8.6875 15.234375 7.390625 
Q 20.0625 6.109375 24.8125 6.109375 
Q 31.15625 6.109375 34.5625 8.28125 
Q 37.984375 10.453125 37.984375 14.40625 
Q 37.984375 18.0625 35.515625 20.015625 
Q 33.0625 21.96875 24.703125 23.78125 
L 21.578125 24.515625 
Q 13.234375 26.265625 9.515625 29.90625 
Q 5.8125 33.546875 5.8125 39.890625 
Q 5.8125 47.609375 11.28125 51.796875 
Q 16.75 56 26.8125 56 
Q 31.78125 56 36.171875 55.265625 
Q 40.578125 54.546875 44.28125 53.078125 
z
" id="DejaVuSans-73"/>
      <path d="M 9.421875 54.6875 
L 18.40625 54.6875 
L 18.40625 0 
L 9.421875 0 
z
M 9.421875 75.984375 
L 18.40625 75.984375 
L 18.40625 64.59375 
L 9.421875 64.59375 
z
" id="DejaVuSans-69"/>
      <path d="M 2.984375 54.6875 
L 12.5 54.6875 
L 29.59375 8.796875 
L 46.6875 54.6875 
L 56.203125 54.6875 
L 35.6875 0 
L 23.484375 0 
z
" id="DejaVuSans-76"/>
     </defs>
     <g transform="translate(334.91875 65.836563)scale(0.1 -0.1)">
      <use xlink:href="#DejaVuSans-50"/>
      <use x="60.255859" xlink:href="#DejaVuSans-6f"/>
      <use x="121.4375" xlink:href="#DejaVuSans-73"/>
      <use x="173.537109" xlink:href="#DejaVuSans-69"/>
      <use x="201.320312" xlink:href="#DejaVuSans-74"/>
      <use x="240.529297" xlink:href="#DejaVuSans-69"/>
      <use x="268.3125" xlink:href="#DejaVuSans-76"/>
      <use x="327.492188" xlink:href="#DejaVuSans-65"/>
     </g>
    </g>
    <g id="line2d_17">
     <path d="M 306.91875 77.014688 
L 326.91875 77.014688 
" style="fill:none;stroke:#2ca02c;stroke-linecap:square;stroke-width:3;"/>
    </g>
    <g id="line2d_18"/>
    <g id="text_12">
     <!-- Negative -->
     <defs>
      <path d="M 45.40625 27.984375 
Q 45.40625 37.75 41.375 43.109375 
Q 37.359375 48.484375 30.078125 48.484375 
Q 22.859375 48.484375 18.828125 43.109375 
Q 14.796875 37.75 14.796875 27.984375 
Q 14.796875 18.265625 18.828125 12.890625 
Q 22.859375 7.515625 30.078125 7.515625 
Q 37.359375 7.515625 41.375 12.890625 
Q 45.40625 18.265625 45.40625 27.984375 
z
M 54.390625 6.78125 
Q 54.390625 -7.171875 48.1875 -13.984375 
Q 42 -20.796875 29.203125 -20.796875 
Q 24.46875 -20.796875 20.265625 -20.09375 
Q 16.0625 -19.390625 12.109375 -17.921875 
L 12.109375 -9.1875 
Q 16.0625 -11.328125 19.921875 -12.34375 
Q 23.78125 -13.375 27.78125 -13.375 
Q 36.625 -13.375 41.015625 -8.765625 
Q 45.40625 -4.15625 45.40625 5.171875 
L 45.40625 9.625 
Q 42.625 4.78125 38.28125 2.390625 
Q 33.9375 0 27.875 0 
Q 17.828125 0 11.671875 7.65625 
Q 5.515625 15.328125 5.515625 27.984375 
Q 5.515625 40.671875 11.671875 48.328125 
Q 17.828125 56 27.875 56 
Q 33.9375 56 38.28125 53.609375 
Q 42.625 51.21875 45.40625 46.390625 
L 45.40625 54.6875 
L 54.390625 54.6875 
z
" id="DejaVuSans-67"/>
     </defs>
     <g transform="translate(334.91875 80.514688)scale(0.1 -0.1)">
      <use xlink:href="#DejaVuSans-4e"/>
      <use x="74.804688" xlink:href="#DejaVuSans-65"/>
      <use x="136.328125" xlink:href="#DejaVuSans-67"/>
      <use x="199.804688" xlink:href="#DejaVuSans-61"/>
      <use x="261.083984" xlink:href="#DejaVuSans-74"/>
      <use x="300.292969" xlink:href="#DejaVuSans-69"/>
      <use x="328.076172" xlink:href="#DejaVuSans-76"/>
      <use x="387.255859" xlink:href="#DejaVuSans-65"/>
     </g>
    </g>
   </g>
  </g>
 </g>
 <defs>
  <clipPath id="pac43b97702">
   <rect height="217.44" width="334.8" x="54" y="34.56"/>
  </clipPath>
 </defs>
</svg>
