<?xml version="1.0" encoding="utf-8" standalone="no"?>
<!DOCTYPE svg PUBLIC "-//W3C//DTD SVG 1.1//EN"
  "http://www.w3.org/Graphics/SVG/1.1/DTD/svg11.dtd">
<!-- Created with matplotlib (http://matplotlib.org/) -->
<svg height="288pt" version="1.1" viewBox="0 0 432 288" width="432pt" xmlns="http://www.w3.org/2000/svg" xmlns:xlink="http://www.w3.org/1999/xlink">
 <defs>
  <style type="text/css">
*{stroke-linecap:butt;stroke-linejoin:round;}
  </style>
 </defs>
 <g id="figure_1">
  <g id="patch_1">
   <path d="M 0 288 
L 432 288 
L 432 0 
L 0 0 
z
" style="fill:#ffffff;"/>
  </g>
  <g id="axes_1">
   <g id="patch_2">
    <path d="M 54 252 
L 388.8 252 
L 388.8 34.56 
L 54 34.56 
z
" style="fill:#ffffff;"/>
   </g>
   <g id="PolyCollection_1">
    <path clip-path="url(#p6a77f117c0)" d="M 277.810433 251.607895 
L 277.810433 252 
L 278.777821 252 
L 279.745209 252 
L 280.712596 252 
L 281.679984 252 
L 282.647372 252 
L 283.614759 252 
L 284.582147 252 
L 285.549535 252 
L 286.516923 252 
L 287.48431 252 
L 288.451698 252 
L 289.419086 252 
L 290.386474 252 
L 291.353861 252 
L 292.321249 252 
L 293.288637 252 
L 294.256024 252 
L 295.223412 252 
L 296.1908 252 
L 297.158188 252 
L 298.125575 252 
L 299.092963 252 
L 300.060351 252 
L 301.027739 252 
L 301.995126 252 
L 302.962514 252 
L 303.929902 252 
L 304.897289 252 
L 305.864677 252 
L 306.832065 252 
L 307.799453 252 
L 308.76684 252 
L 309.734228 252 
L 310.701616 252 
L 311.669004 252 
L 312.636391 252 
L 313.603779 252 
L 314.571167 252 
L 315.538555 252 
L 316.505942 252 
L 317.47333 252 
L 318.440718 252 
L 319.408105 252 
L 320.375493 252 
L 321.342881 252 
L 322.310269 252 
L 323.277656 252 
L 324.245044 252 
L 325.212432 252 
L 326.17982 252 
L 327.147207 252 
L 328.114595 252 
L 329.081983 252 
L 330.04937 252 
L 331.016758 252 
L 331.984146 252 
L 332.951534 252 
L 333.918921 252 
L 334.886309 252 
L 335.853697 252 
L 336.821085 252 
L 337.788472 252 
L 338.75586 252 
L 339.723248 252 
L 340.690635 252 
L 341.658023 252 
L 342.625411 252 
L 343.592799 252 
L 344.560186 252 
L 345.527574 252 
L 346.494962 252 
L 347.46235 252 
L 348.429737 252 
L 349.397125 252 
L 350.364513 252 
L 351.3319 252 
L 352.299288 252 
L 353.266676 252 
L 354.234064 252 
L 355.201451 252 
L 356.168839 252 
L 357.136227 252 
L 358.103615 252 
L 359.071002 252 
L 360.03839 252 
L 361.005778 252 
L 361.973165 252 
L 362.940553 252 
L 363.907941 252 
L 364.875329 252 
L 365.842716 252 
L 366.810104 252 
L 367.777492 252 
L 368.74488 252 
L 369.712267 252 
L 370.679655 252 
L 371.647043 252 
L 372.61443 252 
L 373.581818 252 
L 373.581818 251.996849 
L 373.581818 251.996849 
L 372.61443 251.986776 
L 371.647043 251.95553 
L 370.679655 251.87969 
L 369.712267 251.737026 
L 368.74488 251.533688 
L 367.777492 251.326811 
L 366.810104 251.206604 
L 365.842716 251.235261 
L 364.875329 251.396195 
L 363.907941 251.60654 
L 362.940553 251.777729 
L 361.973165 251.863502 
L 361.005778 251.865946 
L 360.03839 251.818451 
L 359.071002 251.764465 
L 358.103615 251.733 
L 357.136227 251.724073 
L 356.168839 251.724427 
L 355.201451 251.735324 
L 354.234064 251.771279 
L 353.266676 251.833688 
L 352.299288 251.902175 
L 351.3319 251.954295 
L 350.364513 251.983167 
L 349.397125 251.995127 
L 348.429737 251.998893 
L 347.46235 251.999802 
L 346.494962 251.99997 
L 345.527574 251.999971 
L 344.560186 251.999813 
L 343.592799 251.998944 
L 342.625411 251.99532 
L 341.658023 251.983733 
L 340.690635 251.95563 
L 339.723248 251.904918 
L 338.75586 251.839352 
L 337.788472 251.783531 
L 336.821085 251.758979 
L 335.853697 251.756437 
L 334.886309 251.738087 
L 333.918921 251.675814 
L 332.951534 251.58112 
L 331.984146 251.488118 
L 331.016758 251.410724 
L 330.04937 251.329707 
L 329.081983 251.225451 
L 328.114595 251.110357 
L 327.147207 251.020677 
L 326.17982 250.986985 
L 325.212432 251.014737 
L 324.245044 251.068873 
L 323.277656 251.062643 
L 322.310269 250.887541 
L 321.342881 250.496729 
L 320.375493 249.98159 
L 319.408105 249.551773 
L 318.440718 249.401953 
L 317.47333 249.57513 
L 316.505942 249.946422 
L 315.538555 250.310985 
L 314.571167 250.469282 
L 313.603779 250.271273 
L 312.636391 249.656334 
L 311.669004 248.6983 
L 310.701616 247.605904 
L 309.734228 246.618277 
L 308.76684 245.817471 
L 307.799453 245.035752 
L 306.832065 244.028936 
L 305.864677 242.773463 
L 304.897289 241.517047 
L 303.929902 240.473072 
L 302.962514 239.496124 
L 301.995126 238.121955 
L 301.027739 235.950731 
L 300.060351 232.992866 
L 299.092963 229.635226 
L 298.125575 226.228471 
L 297.158188 222.674005 
L 296.1908 218.469994 
L 295.223412 213.223033 
L 294.256024 207.014683 
L 293.288637 200.081647 
L 292.321249 192.145709 
L 291.353861 182.259106 
L 290.386474 169.369072 
L 289.419086 152.963613 
L 288.451698 133.499446 
L 287.48431 113.177468 
L 286.516923 97.146534 
L 285.549535 93.20387 
L 284.582147 107.659548 
L 283.614759 139.335497 
L 282.647372 178.309306 
L 281.679984 212.316022 
L 280.712596 234.620307 
L 279.745209 245.863003 
L 278.777821 250.263349 
L 277.810433 251.607895 
z
" style="fill:#1f77b4;fill-opacity:0.25;"/>
   </g>
   <g id="PolyCollection_2">
    <path clip-path="url(#p6a77f117c0)" d="M 81.86711 251.999398 
L 81.86711 252 
L 84.342197 252 
L 86.817283 252 
L 89.29237 252 
L 91.767457 252 
L 94.242544 252 
L 96.717631 252 
L 99.192718 252 
L 101.667804 252 
L 104.142891 252 
L 106.617978 252 
L 109.093065 252 
L 111.568152 252 
L 114.043238 252 
L 116.518325 252 
L 118.993412 252 
L 121.468499 252 
L 123.943586 252 
L 126.418673 252 
L 128.893759 252 
L 131.368846 252 
L 133.843933 252 
L 136.31902 252 
L 138.794107 252 
L 141.269193 252 
L 143.74428 252 
L 146.219367 252 
L 148.694454 252 
L 151.169541 252 
L 153.644628 252 
L 156.119714 252 
L 158.594801 252 
L 161.069888 252 
L 163.544975 252 
L 166.020062 252 
L 168.495148 252 
L 170.970235 252 
L 173.445322 252 
L 175.920409 252 
L 178.395496 252 
L 180.870583 252 
L 183.345669 252 
L 185.820756 252 
L 188.295843 252 
L 190.77093 252 
L 193.246017 252 
L 195.721104 252 
L 198.19619 252 
L 200.671277 252 
L 203.146364 252 
L 205.621451 252 
L 208.096538 252 
L 210.571624 252 
L 213.046711 252 
L 215.521798 252 
L 217.996885 252 
L 220.471972 252 
L 222.947059 252 
L 225.422145 252 
L 227.897232 252 
L 230.372319 252 
L 232.847406 252 
L 235.322493 252 
L 237.797579 252 
L 240.272666 252 
L 242.747753 252 
L 245.22284 252 
L 247.697927 252 
L 250.173014 252 
L 252.6481 252 
L 255.123187 252 
L 257.598274 252 
L 260.073361 252 
L 262.548448 252 
L 265.023534 252 
L 267.498621 252 
L 269.973708 252 
L 272.448795 252 
L 274.923882 252 
L 277.398969 252 
L 279.874055 252 
L 282.349142 252 
L 284.824229 252 
L 287.299316 252 
L 289.774403 252 
L 292.249489 252 
L 294.724576 252 
L 297.199663 252 
L 299.67475 252 
L 302.149837 252 
L 304.624924 252 
L 307.10001 252 
L 309.575097 252 
L 312.050184 252 
L 314.525271 252 
L 317.000358 252 
L 319.475445 252 
L 321.950531 252 
L 324.425618 252 
L 326.900705 252 
L 326.900705 251.999563 
L 326.900705 251.999563 
L 324.425618 251.997974 
L 321.950531 251.992661 
L 319.475445 251.978753 
L 317.000358 251.949294 
L 314.525271 251.896362 
L 312.050184 251.811154 
L 309.575097 251.682089 
L 307.10001 251.490276 
L 304.624924 251.197068 
L 302.149837 250.715064 
L 299.67475 249.858393 
L 297.199663 248.275907 
L 294.724576 245.391751 
L 292.249489 240.4694 
L 289.774403 233.030181 
L 287.299316 223.618916 
L 284.824229 214.194736 
L 282.349142 207.30171 
L 279.874055 204.493127 
L 277.398969 205.565715 
L 274.923882 209.160956 
L 272.448795 213.77024 
L 269.973708 218.276222 
L 267.498621 222.06848 
L 265.023534 225.030966 
L 262.548448 227.437564 
L 260.073361 229.677496 
L 257.598274 231.951151 
L 255.123187 234.206265 
L 252.6481 236.310824 
L 250.173014 238.205879 
L 247.697927 239.903205 
L 245.22284 241.418497 
L 242.747753 242.743353 
L 240.272666 243.846496 
L 237.797579 244.689957 
L 235.322493 245.274636 
L 232.847406 245.66544 
L 230.372319 245.954812 
L 227.897232 246.227017 
L 225.422145 246.559593 
L 222.947059 247.007383 
L 220.471972 247.568251 
L 217.996885 248.188506 
L 215.521798 248.795389 
L 213.046711 249.317549 
L 210.571624 249.706825 
L 208.096538 249.96524 
L 205.621451 250.145012 
L 203.146364 250.311166 
L 200.671277 250.497629 
L 198.19619 250.693509 
L 195.721104 250.86511 
L 193.246017 250.987173 
L 190.77093 251.055567 
L 188.295843 251.078184 
L 185.820756 251.066193 
L 183.345669 251.040742 
L 180.870583 251.035311 
L 178.395496 251.074855 
L 175.920409 251.155916 
L 173.445322 251.25486 
L 170.970235 251.347018 
L 168.495148 251.415598 
L 166.020062 251.459715 
L 163.544975 251.499275 
L 161.069888 251.557176 
L 158.594801 251.632403 
L 156.119714 251.69869 
L 153.644628 251.729781 
L 151.169541 251.721927 
L 148.694454 251.694577 
L 146.219367 251.674893 
L 143.74428 251.682491 
L 141.269193 251.722293 
L 138.794107 251.783708 
L 136.31902 251.846767 
L 133.843933 251.894702 
L 131.368846 251.922914 
L 128.893759 251.936375 
L 126.418673 251.941752 
L 123.943586 251.943625 
L 121.468499 251.944231 
L 118.993412 251.943609 
L 116.518325 251.940543 
L 114.043238 251.933846 
L 111.568152 251.924846 
L 109.093065 251.9199 
L 106.617978 251.924986 
L 104.142891 251.935631 
L 101.667804 251.939747 
L 99.192718 251.933618 
L 96.717631 251.928233 
L 94.242544 251.93591 
L 91.767457 251.9558 
L 89.29237 251.976905 
L 86.817283 251.990903 
L 84.342197 251.997302 
L 81.86711 251.999398 
z
" style="fill:#ff7f0e;fill-opacity:0.25;"/>
   </g>
   <g id="PolyCollection_3">
    <path clip-path="url(#p6a77f117c0)" d="M 272.064592 251.996458 
L 272.064592 252 
L 273.038533 252 
L 274.012474 252 
L 274.986415 252 
L 275.960356 252 
L 276.934297 252 
L 277.908238 252 
L 278.88218 252 
L 279.856121 252 
L 280.830062 252 
L 281.804003 252 
L 282.777944 252 
L 283.751885 252 
L 284.725826 252 
L 285.699767 252 
L 286.673708 252 
L 287.647649 252 
L 288.62159 252 
L 289.595531 252 
L 290.569472 252 
L 291.543413 252 
L 292.517354 252 
L 293.491295 252 
L 294.465237 252 
L 295.439178 252 
L 296.413119 252 
L 297.38706 252 
L 298.361001 252 
L 299.334942 252 
L 300.308883 252 
L 301.282824 252 
L 302.256765 252 
L 303.230706 252 
L 304.204647 252 
L 305.178588 252 
L 306.152529 252 
L 307.12647 252 
L 308.100411 252 
L 309.074352 252 
L 310.048294 252 
L 311.022235 252 
L 311.996176 252 
L 312.970117 252 
L 313.944058 252 
L 314.917999 252 
L 315.89194 252 
L 316.865881 252 
L 317.839822 252 
L 318.813763 252 
L 319.787704 252 
L 320.761645 252 
L 321.735586 252 
L 322.709527 252 
L 323.683468 252 
L 324.657409 252 
L 325.631351 252 
L 326.605292 252 
L 327.579233 252 
L 328.553174 252 
L 329.527115 252 
L 330.501056 252 
L 331.474997 252 
L 332.448938 252 
L 333.422879 252 
L 334.39682 252 
L 335.370761 252 
L 336.344702 252 
L 337.318643 252 
L 338.292584 252 
L 339.266525 252 
L 340.240466 252 
L 341.214407 252 
L 342.188349 252 
L 343.16229 252 
L 344.136231 252 
L 345.110172 252 
L 346.084113 252 
L 347.058054 252 
L 348.031995 252 
L 349.005936 252 
L 349.979877 252 
L 350.953818 252 
L 351.927759 252 
L 352.9017 252 
L 353.875641 252 
L 354.849582 252 
L 355.823523 252 
L 356.797464 252 
L 357.771406 252 
L 358.745347 252 
L 359.719288 252 
L 360.693229 252 
L 361.66717 252 
L 362.641111 252 
L 363.615052 252 
L 364.588993 252 
L 365.562934 252 
L 366.536875 252 
L 367.510816 252 
L 368.484757 252 
L 368.484757 251.996324 
L 368.484757 251.996324 
L 367.510816 251.987124 
L 366.536875 251.962613 
L 365.562934 251.909906 
L 364.588993 251.819431 
L 363.615052 251.697858 
L 362.641111 251.575043 
L 361.66717 251.49148 
L 360.693229 251.471338 
L 359.719288 251.50655 
L 358.745347 251.568558 
L 357.771406 251.633655 
L 356.797464 251.695734 
L 355.823523 251.758946 
L 354.849582 251.823791 
L 353.875641 251.881437 
L 352.9017 251.918571 
L 351.927759 251.925592 
L 350.953818 251.901596 
L 349.979877 251.854458 
L 349.005936 251.796158 
L 348.031995 251.734938 
L 347.058054 251.670255 
L 346.084113 251.596387 
L 345.110172 251.511441 
L 344.136231 251.421486 
L 343.16229 251.335741 
L 342.188349 251.260018 
L 341.214407 251.195922 
L 340.240466 251.142914 
L 339.266525 251.09632 
L 338.292584 251.043217 
L 337.318643 250.964933 
L 336.344702 250.849074 
L 335.370761 250.703455 
L 334.39682 250.558316 
L 333.422879 250.448076 
L 332.448938 250.384772 
L 331.474997 250.352733 
L 330.501056 250.33513 
L 329.527115 250.341754 
L 328.553174 250.400138 
L 327.579233 250.514021 
L 326.605292 250.633097 
L 325.631351 250.669673 
L 324.657409 250.552915 
L 323.683468 250.277013 
L 322.709527 249.906031 
L 321.735586 249.533521 
L 320.761645 249.225582 
L 319.787704 248.981718 
L 318.813763 248.734877 
L 317.839822 248.392859 
L 316.865881 247.90143 
L 315.89194 247.292647 
L 314.917999 246.684402 
L 313.944058 246.222537 
L 312.970117 245.994357 
L 311.996176 245.969005 
L 311.022235 246.00683 
L 310.048294 245.929033 
L 309.074352 245.598008 
L 308.100411 244.962737 
L 307.12647 244.056115 
L 306.152529 242.958965 
L 305.178588 241.752487 
L 304.204647 240.467456 
L 303.230706 239.031567 
L 302.256765 237.248999 
L 301.282824 234.881053 
L 300.308883 231.836924 
L 299.334942 228.335277 
L 298.361001 224.84031 
L 297.38706 221.750604 
L 296.413119 219.078247 
L 295.439178 216.395584 
L 294.465237 213.081896 
L 293.491295 208.637394 
L 292.517354 202.799436 
L 291.543413 195.381691 
L 290.569472 186.000291 
L 289.595531 174.008875 
L 288.62159 158.92794 
L 287.647649 141.391116 
L 286.673708 124.190737 
L 285.699767 112.481001 
L 284.725826 112.087249 
L 283.751885 126.096726 
L 282.777944 152.098206 
L 281.804003 182.887339 
L 280.830062 210.530701 
L 279.856121 230.393649 
L 278.88218 242.141943 
L 277.908238 247.994727 
L 276.934297 250.515928 
L 275.960356 251.486424 
L 274.986415 251.83214 
L 274.012474 251.948676 
L 273.038533 251.985684 
L 272.064592 251.996458 
z
" style="fill:#2ca02c;fill-opacity:0.25;"/>
   </g>
   <g id="PolyCollection_4">
    <path clip-path="url(#p6a77f117c0)" d="M 69.218182 251.999231 
L 69.218182 252 
L 71.590243 252 
L 73.962305 252 
L 76.334366 252 
L 78.706427 252 
L 81.078489 252 
L 83.45055 252 
L 85.822611 252 
L 88.194673 252 
L 90.566734 252 
L 92.938796 252 
L 95.310857 252 
L 97.682918 252 
L 100.05498 252 
L 102.427041 252 
L 104.799103 252 
L 107.171164 252 
L 109.543225 252 
L 111.915287 252 
L 114.287348 252 
L 116.659409 252 
L 119.031471 252 
L 121.403532 252 
L 123.775594 252 
L 126.147655 252 
L 128.519716 252 
L 130.891778 252 
L 133.263839 252 
L 135.6359 252 
L 138.007962 252 
L 140.380023 252 
L 142.752085 252 
L 145.124146 252 
L 147.496207 252 
L 149.868269 252 
L 152.24033 252 
L 154.612391 252 
L 156.984453 252 
L 159.356514 252 
L 161.728576 252 
L 164.100637 252 
L 166.472698 252 
L 168.84476 252 
L 171.216821 252 
L 173.588883 252 
L 175.960944 252 
L 178.333005 252 
L 180.705067 252 
L 183.077128 252 
L 185.449189 252 
L 187.821251 252 
L 190.193312 252 
L 192.565374 252 
L 194.937435 252 
L 197.309496 252 
L 199.681558 252 
L 202.053619 252 
L 204.42568 252 
L 206.797742 252 
L 209.169803 252 
L 211.541865 252 
L 213.913926 252 
L 216.285987 252 
L 218.658049 252 
L 221.03011 252 
L 223.402171 252 
L 225.774233 252 
L 228.146294 252 
L 230.518356 252 
L 232.890417 252 
L 235.262478 252 
L 237.63454 252 
L 240.006601 252 
L 242.378663 252 
L 244.750724 252 
L 247.122785 252 
L 249.494847 252 
L 251.866908 252 
L 254.238969 252 
L 256.611031 252 
L 258.983092 252 
L 261.355154 252 
L 263.727215 252 
L 266.099276 252 
L 268.471338 252 
L 270.843399 252 
L 273.21546 252 
L 275.587522 252 
L 277.959583 252 
L 280.331645 252 
L 282.703706 252 
L 285.075767 252 
L 287.447829 252 
L 289.81989 252 
L 292.191951 252 
L 294.564013 252 
L 296.936074 252 
L 299.308136 252 
L 301.680197 252 
L 304.052258 252 
L 304.052258 251.899437 
L 304.052258 251.899437 
L 301.680197 251.66163 
L 299.308136 251.011119 
L 296.936074 249.486154 
L 294.564013 246.430196 
L 292.191951 241.215054 
L 289.81989 233.682292 
L 287.447829 224.571534 
L 285.075767 215.536455 
L 282.703706 208.543023 
L 280.331645 204.951812 
L 277.959583 204.921634 
L 275.587522 207.536356 
L 273.21546 211.467032 
L 270.843399 215.630548 
L 268.471338 219.463915 
L 266.099276 222.825505 
L 263.727215 225.764506 
L 261.355154 228.360439 
L 258.983092 230.679492 
L 256.611031 232.789694 
L 254.238969 234.767079 
L 251.866908 236.669804 
L 249.494847 238.504186 
L 247.122785 240.220174 
L 244.750724 241.746173 
L 242.378663 243.033608 
L 240.006601 244.074031 
L 237.63454 244.885158 
L 235.262478 245.495985 
L 232.890417 245.953265 
L 230.518356 246.333373 
L 228.146294 246.726811 
L 225.774233 247.192742 
L 223.402171 247.721948 
L 221.03011 248.246346 
L 218.658049 248.689719 
L 216.285987 249.016739 
L 213.913926 249.244231 
L 211.541865 249.416195 
L 209.169803 249.57107 
L 206.797742 249.725369 
L 204.42568 249.877032 
L 202.053619 250.01796 
L 199.681558 250.144962 
L 197.309496 250.263754 
L 194.937435 250.385409 
L 192.565374 250.518372 
L 190.193312 250.6619 
L 187.821251 250.805928 
L 185.449189 250.937486 
L 183.077128 251.048645 
L 180.705067 251.140348 
L 178.333005 251.220126 
L 175.960944 251.295848 
L 173.588883 251.369451 
L 171.216821 251.434185 
L 168.84476 251.476956 
L 166.472698 251.484899 
L 164.100637 251.45367 
L 161.728576 251.39392 
L 159.356514 251.331446 
L 156.984453 251.297665 
L 154.612391 251.313328 
L 152.24033 251.375891 
L 149.868269 251.460781 
L 147.496207 251.53643 
L 145.124146 251.582015 
L 142.752085 251.59612 
L 140.380023 251.593272 
L 138.007962 251.593662 
L 135.6359 251.6128 
L 133.263839 251.654963 
L 130.891778 251.711809 
L 128.519716 251.766327 
L 126.147655 251.800733 
L 123.775594 251.804884 
L 121.403532 251.780978 
L 119.031471 251.741984 
L 116.659409 251.704888 
L 114.287348 251.683204 
L 111.915287 251.683264 
L 109.543225 251.705071 
L 107.171164 251.744722 
L 104.799103 251.795623 
L 102.427041 251.848842 
L 100.05498 251.894613 
L 97.682918 251.925422 
L 95.310857 251.938923 
L 92.938796 251.938779 
L 90.566734 251.932839 
L 88.194673 251.929448 
L 85.822611 251.933685 
L 83.45055 251.94559 
L 81.078489 251.961346 
L 78.706427 251.976283 
L 76.334366 251.987442 
L 73.962305 251.994263 
L 71.590243 251.997739 
L 69.218182 251.999231 
z
" style="fill:#d62728;fill-opacity:0.25;"/>
   </g>
   <g id="PolyCollection_5">
    <path clip-path="url(#p6a77f117c0)" d="M 278.048257 251.769479 
L 278.048257 252 
L 278.859169 252 
L 279.670082 252 
L 280.480995 252 
L 281.291908 252 
L 282.10282 252 
L 282.913733 252 
L 283.724646 252 
L 284.535559 252 
L 285.346471 252 
L 286.157384 252 
L 286.968297 252 
L 287.779209 252 
L 288.590122 252 
L 289.401035 252 
L 290.211948 252 
L 291.02286 252 
L 291.833773 252 
L 292.644686 252 
L 293.455599 252 
L 294.266511 252 
L 295.077424 252 
L 295.888337 252 
L 296.699249 252 
L 297.510162 252 
L 298.321075 252 
L 299.131988 252 
L 299.9429 252 
L 300.753813 252 
L 301.564726 252 
L 302.375638 252 
L 303.186551 252 
L 303.997464 252 
L 304.808377 252 
L 305.619289 252 
L 306.430202 252 
L 307.241115 252 
L 308.052028 252 
L 308.86294 252 
L 309.673853 252 
L 310.484766 252 
L 311.295678 252 
L 312.106591 252 
L 312.917504 252 
L 313.728417 252 
L 314.539329 252 
L 315.350242 252 
L 316.161155 252 
L 316.972068 252 
L 317.78298 252 
L 318.593893 252 
L 319.404806 252 
L 320.215718 252 
L 321.026631 252 
L 321.837544 252 
L 322.648457 252 
L 323.459369 252 
L 324.270282 252 
L 325.081195 252 
L 325.892108 252 
L 326.70302 252 
L 327.513933 252 
L 328.324846 252 
L 329.135758 252 
L 329.946671 252 
L 330.757584 252 
L 331.568497 252 
L 332.379409 252 
L 333.190322 252 
L 334.001235 252 
L 334.812148 252 
L 335.62306 252 
L 336.433973 252 
L 337.244886 252 
L 338.055798 252 
L 338.866711 252 
L 339.677624 252 
L 340.488537 252 
L 341.299449 252 
L 342.110362 252 
L 342.921275 252 
L 343.732187 252 
L 344.5431 252 
L 345.354013 252 
L 346.164926 252 
L 346.975838 252 
L 347.786751 252 
L 348.597664 252 
L 349.408577 252 
L 350.219489 252 
L 351.030402 252 
L 351.841315 252 
L 352.652227 252 
L 353.46314 252 
L 354.274053 252 
L 355.084966 252 
L 355.895878 252 
L 356.706791 252 
L 357.517704 252 
L 358.328617 252 
L 358.328617 251.997716 
L 358.328617 251.997716 
L 357.517704 251.99203 
L 356.706791 251.977291 
L 355.895878 251.947119 
L 355.084966 251.899138 
L 354.274053 251.841353 
L 353.46314 251.790035 
L 352.652227 251.753236 
L 351.841315 251.712717 
L 351.030402 251.629991 
L 350.219489 251.484351 
L 349.408577 251.311513 
L 348.597664 251.195631 
L 347.786751 251.206881 
L 346.975838 251.339102 
L 346.164926 251.510041 
L 345.354013 251.622162 
L 344.5431 251.624122 
L 343.732187 251.526049 
L 342.921275 251.373367 
L 342.110362 251.214891 
L 341.299449 251.092598 
L 340.488537 251.045695 
L 339.677624 251.100476 
L 338.866711 251.244307 
L 338.055798 251.419427 
L 337.244886 251.556186 
L 336.433973 251.615806 
L 335.62306 251.603405 
L 334.812148 251.551084 
L 334.001235 251.49774 
L 333.190322 251.47612 
L 332.379409 251.498598 
L 331.568497 251.54693 
L 330.757584 251.584198 
L 329.946671 251.583007 
L 329.135758 251.540262 
L 328.324846 251.467826 
L 327.513933 251.377923 
L 326.70302 251.277827 
L 325.892108 251.169472 
L 325.081195 251.051549 
L 324.270282 250.930137 
L 323.459369 250.829011 
L 322.648457 250.775061 
L 321.837544 250.761228 
L 321.026631 250.731519 
L 320.215718 250.618404 
L 319.404806 250.399867 
L 318.593893 250.117318 
L 317.78298 249.839579 
L 316.972068 249.613248 
L 316.161155 249.442623 
L 315.350242 249.302155 
L 314.539329 249.160214 
L 313.728417 249.001912 
L 312.917504 248.841131 
L 312.106591 248.706503 
L 311.295678 248.608134 
L 310.484766 248.515017 
L 309.673853 248.35595 
L 308.86294 248.037395 
L 308.052028 247.481066 
L 307.241115 246.673383 
L 306.430202 245.680748 
L 305.619289 244.59616 
L 304.808377 243.457698 
L 303.997464 242.224548 
L 303.186551 240.845997 
L 302.375638 239.355422 
L 301.564726 237.873321 
L 300.753813 236.479134 
L 299.9429 235.052856 
L 299.131988 233.253912 
L 298.321075 230.702223 
L 297.510162 227.21616 
L 296.699249 222.86741 
L 295.888337 217.786225 
L 295.077424 211.921133 
L 294.266511 205.003779 
L 293.455599 196.7425 
L 292.644686 187.048842 
L 291.833773 176.117384 
L 291.02286 164.336269 
L 290.211948 152.098731 
L 289.401035 139.607072 
L 288.590122 126.842552 
L 287.779209 113.988608 
L 286.968297 102.415216 
L 286.157384 95.585586 
L 285.346471 98.468248 
L 284.535559 114.668358 
L 283.724646 142.976641 
L 282.913733 176.770166 
L 282.10282 207.568124 
L 281.291908 229.785713 
L 280.480995 242.672365 
L 279.670082 248.729345 
L 278.859169 251.046321 
L 278.048257 251.769479 
z
" style="fill:#9467bd;fill-opacity:0.25;"/>
   </g>
   <g id="PolyCollection_6">
    <path clip-path="url(#p6a77f117c0)" d="M 138.076115 251.998892 
L 138.076115 252 
L 139.655999 252 
L 141.235884 252 
L 142.815768 252 
L 144.395652 252 
L 145.975537 252 
L 147.555421 252 
L 149.135305 252 
L 150.71519 252 
L 152.295074 252 
L 153.874958 252 
L 155.454842 252 
L 157.034727 252 
L 158.614611 252 
L 160.194495 252 
L 161.77438 252 
L 163.354264 252 
L 164.934148 252 
L 166.514033 252 
L 168.093917 252 
L 169.673801 252 
L 171.253685 252 
L 172.83357 252 
L 174.413454 252 
L 175.993338 252 
L 177.573223 252 
L 179.153107 252 
L 180.732991 252 
L 182.312876 252 
L 183.89276 252 
L 185.472644 252 
L 187.052528 252 
L 188.632413 252 
L 190.212297 252 
L 191.792181 252 
L 193.372066 252 
L 194.95195 252 
L 196.531834 252 
L 198.111719 252 
L 199.691603 252 
L 201.271487 252 
L 202.851372 252 
L 204.431256 252 
L 206.01114 252 
L 207.591024 252 
L 209.170909 252 
L 210.750793 252 
L 212.330677 252 
L 213.910562 252 
L 215.490446 252 
L 217.07033 252 
L 218.650215 252 
L 220.230099 252 
L 221.809983 252 
L 223.389867 252 
L 224.969752 252 
L 226.549636 252 
L 228.12952 252 
L 229.709405 252 
L 231.289289 252 
L 232.869173 252 
L 234.449058 252 
L 236.028942 252 
L 237.608826 252 
L 239.18871 252 
L 240.768595 252 
L 242.348479 252 
L 243.928363 252 
L 245.508248 252 
L 247.088132 252 
L 248.668016 252 
L 250.247901 252 
L 251.827785 252 
L 253.407669 252 
L 254.987553 252 
L 256.567438 252 
L 258.147322 252 
L 259.727206 252 
L 261.307091 252 
L 262.886975 252 
L 264.466859 252 
L 266.046744 252 
L 267.626628 252 
L 269.206512 252 
L 270.786397 252 
L 272.366281 252 
L 273.946165 252 
L 275.526049 252 
L 277.105934 252 
L 278.685818 252 
L 280.265702 252 
L 281.845587 252 
L 283.425471 252 
L 285.005355 252 
L 286.58524 252 
L 288.165124 252 
L 289.745008 252 
L 291.324892 252 
L 292.904777 252 
L 294.484661 252 
L 294.484661 251.938587 
L 294.484661 251.938587 
L 292.904777 251.729685 
L 291.324892 251.019147 
L 289.745008 249.054241 
L 288.165124 244.638644 
L 286.58524 236.58391 
L 285.005355 224.686201 
L 283.425471 210.534377 
L 281.845587 197.160469 
L 280.265702 187.487371 
L 278.685818 182.834577 
L 277.105934 182.700893 
L 275.526049 185.681135 
L 273.946165 190.442207 
L 272.366281 196.065566 
L 270.786397 201.906317 
L 269.206512 207.436661 
L 267.626628 212.288269 
L 266.046744 216.358627 
L 264.466859 219.775848 
L 262.886975 222.736093 
L 261.307091 225.393472 
L 259.727206 227.85775 
L 258.147322 230.190567 
L 256.567438 232.367995 
L 254.987553 234.303761 
L 253.407669 235.949236 
L 251.827785 237.361759 
L 250.247901 238.676348 
L 248.668016 240.023819 
L 247.088132 241.457075 
L 245.508248 242.917229 
L 243.928363 244.25664 
L 242.348479 245.317048 
L 240.768595 246.026389 
L 239.18871 246.452084 
L 237.608826 246.76377 
L 236.028942 247.12669 
L 234.449058 247.609783 
L 232.869173 248.174619 
L 231.289289 248.733929 
L 229.709405 249.217452 
L 228.12952 249.59931 
L 226.549636 249.890271 
L 224.969752 250.119119 
L 223.389867 250.312091 
L 221.809983 250.475278 
L 220.230099 250.59676 
L 218.650215 250.669165 
L 217.07033 250.70553 
L 215.490446 250.733923 
L 213.910562 250.78432 
L 212.330677 250.875847 
L 210.750793 251.00223 
L 209.170909 251.128611 
L 207.591024 251.21433 
L 206.01114 251.243667 
L 204.431256 251.231134 
L 202.851372 251.200074 
L 201.271487 251.167047 
L 199.691603 251.148669 
L 198.111719 251.168005 
L 196.531834 251.240417 
L 194.95195 251.357732 
L 193.372066 251.494984 
L 191.792181 251.628741 
L 190.212297 251.743544 
L 188.632413 251.827627 
L 187.052528 251.873396 
L 185.472644 251.883857 
L 183.89276 251.873424 
L 182.312876 251.859102 
L 180.732991 251.851497 
L 179.153107 251.85435 
L 177.573223 251.868385 
L 175.993338 251.890874 
L 174.413454 251.912897 
L 172.83357 251.922671 
L 171.253685 251.914614 
L 169.673801 251.894358 
L 168.093917 251.873635 
L 166.514033 251.860795 
L 164.934148 251.857691 
L 163.354264 251.864422 
L 161.77438 251.882345 
L 160.194495 251.9103 
L 158.614611 251.941145 
L 157.034727 251.964897 
L 155.454842 251.974299 
L 153.874958 251.967072 
L 152.295074 251.946129 
L 150.71519 251.92031 
L 149.135305 251.902701 
L 147.555421 251.903478 
L 145.975537 251.922396 
L 144.395652 251.949452 
L 142.815768 251.973327 
L 141.235884 251.988598 
L 139.655999 251.996052 
L 138.076115 251.998892 
z
" style="fill:#8c564b;fill-opacity:0.25;"/>
   </g>
   <g id="PolyCollection_7">
    <path clip-path="url(#p6a77f117c0)" d="M 214.207409 251.998743 
L 214.207409 252 
L 215.747112 252 
L 217.286815 252 
L 218.826517 252 
L 220.36622 252 
L 221.905922 252 
L 223.445625 252 
L 224.985328 252 
L 226.52503 252 
L 228.064733 252 
L 229.604435 252 
L 231.144138 252 
L 232.683841 252 
L 234.223543 252 
L 235.763246 252 
L 237.302948 252 
L 238.842651 252 
L 240.382353 252 
L 241.922056 252 
L 243.461759 252 
L 245.001461 252 
L 246.541164 252 
L 248.080866 252 
L 249.620569 252 
L 251.160272 252 
L 252.699974 252 
L 254.239677 252 
L 255.779379 252 
L 257.319082 252 
L 258.858785 252 
L 260.398487 252 
L 261.93819 252 
L 263.477892 252 
L 265.017595 252 
L 266.557298 252 
L 268.097 252 
L 269.636703 252 
L 271.176405 252 
L 272.716108 252 
L 274.25581 252 
L 275.795513 252 
L 277.335216 252 
L 278.874918 252 
L 280.414621 252 
L 281.954323 252 
L 283.494026 252 
L 285.033729 252 
L 286.573431 252 
L 288.113134 252 
L 289.652836 252 
L 291.192539 252 
L 292.732242 252 
L 294.271944 252 
L 295.811647 252 
L 297.351349 252 
L 298.891052 252 
L 300.430755 252 
L 301.970457 252 
L 303.51016 252 
L 305.049862 252 
L 306.589565 252 
L 308.129267 252 
L 309.66897 252 
L 311.208673 252 
L 312.748375 252 
L 314.288078 252 
L 315.82778 252 
L 317.367483 252 
L 318.907186 252 
L 320.446888 252 
L 321.986591 252 
L 323.526293 252 
L 325.065996 252 
L 326.605699 252 
L 328.145401 252 
L 329.685104 252 
L 331.224806 252 
L 332.764509 252 
L 334.304212 252 
L 335.843914 252 
L 337.383617 252 
L 338.923319 252 
L 340.463022 252 
L 342.002724 252 
L 343.542427 252 
L 345.08213 252 
L 346.621832 252 
L 348.161535 252 
L 349.701237 252 
L 351.24094 252 
L 352.780643 252 
L 354.320345 252 
L 355.860048 252 
L 357.39975 252 
L 358.939453 252 
L 360.479156 252 
L 362.018858 252 
L 363.558561 252 
L 365.098263 252 
L 366.637966 252 
L 366.637966 251.998743 
L 366.637966 251.998743 
L 365.098263 251.980354 
L 363.558561 251.914158 
L 362.018858 251.895165 
L 360.479156 251.964215 
L 358.939453 251.996586 
L 357.39975 251.999909 
L 355.860048 251.999999 
L 354.320345 251.999947 
L 352.780643 251.997586 
L 351.24094 251.967625 
L 349.701237 251.863017 
L 348.161535 251.798431 
L 346.621832 251.892284 
L 345.08213 251.979446 
L 343.542427 251.981495 
L 342.002724 251.905753 
L 340.463022 251.817693 
L 338.923319 251.848929 
L 337.383617 251.949847 
L 335.843914 251.9945 
L 334.304212 251.997695 
L 332.764509 251.97286 
L 331.224806 251.90339 
L 329.685104 251.903536 
L 328.145401 251.964024 
L 326.605699 251.920584 
L 325.065996 251.767472 
L 323.526293 251.693165 
L 321.986591 251.69314 
L 320.446888 251.566653 
L 318.907186 251.538239 
L 317.367483 251.587952 
L 315.82778 251.481817 
L 314.288078 251.340072 
L 312.748375 251.104871 
L 311.208673 250.770793 
L 309.66897 250.305553 
L 308.129267 250.034382 
L 306.589565 250.096745 
L 305.049862 249.989291 
L 303.51016 249.394633 
L 301.970457 247.94802 
L 300.430755 246.34862 
L 298.891052 245.361722 
L 297.351349 244.426109 
L 295.811647 242.673134 
L 294.271944 239.144025 
L 292.732242 234.272317 
L 291.192539 227.552184 
L 289.652836 218.385498 
L 288.113134 203.111979 
L 286.573431 167.252645 
L 285.033729 95.997935 
L 283.494026 44.914286 
L 281.954323 89.016583 
L 280.414621 158.93538 
L 278.874918 199.481238 
L 277.335216 219.148619 
L 275.795513 229.799828 
L 274.25581 236.717845 
L 272.716108 241.063725 
L 271.176405 243.581602 
L 269.636703 245.932779 
L 268.097 248.075774 
L 266.557298 248.997705 
L 265.017595 249.595167 
L 263.477892 250.260901 
L 261.93819 250.52153 
L 260.398487 250.371126 
L 258.858785 250.704335 
L 257.319082 251.28744 
L 255.779379 251.507729 
L 254.239677 251.529708 
L 252.699974 251.582325 
L 251.160272 251.548015 
L 249.620569 251.511527 
L 248.080866 251.622984 
L 246.541164 251.59813 
L 245.001461 251.540398 
L 243.461759 251.509116 
L 241.922056 251.658433 
L 240.382353 251.830296 
L 238.842651 251.899846 
L 237.302948 251.935901 
L 235.763246 251.89008 
L 234.223543 251.916302 
L 232.683841 251.945289 
L 231.144138 251.892496 
L 229.604435 251.916913 
L 228.064733 251.978278 
L 226.52503 251.961645 
L 224.985328 251.894089 
L 223.445625 251.915786 
L 221.905922 251.977907 
L 220.36622 251.963055 
L 218.826517 251.895145 
L 217.286815 251.914158 
L 215.747112 251.980354 
L 214.207409 251.998743 
z
" style="fill:#e377c2;fill-opacity:0.25;"/>
   </g>
   <g id="matplotlib.axis_1">
    <g id="xtick_1">
     <g id="line2d_1">
      <defs>
       <path d="M 0 0 
L 0 3.5 
" id="m74a99227d6" style="stroke:#000000;stroke-width:0.8;"/>
      </defs>
      <g>
       <use style="stroke:#000000;stroke-width:0.8;" x="58.193826" xlink:href="#m74a99227d6" y="252"/>
      </g>
     </g>
     <g id="text_1">
      <!-- −0.8 -->
      <defs>
       <path d="M 10.59375 35.5 
L 73.1875 35.5 
L 73.1875 27.203125 
L 10.59375 27.203125 
z
" id="DejaVuSans-2212"/>
       <path d="M 31.78125 66.40625 
Q 24.171875 66.40625 20.328125 58.90625 
Q 16.5 51.421875 16.5 36.375 
Q 16.5 21.390625 20.328125 13.890625 
Q 24.171875 6.390625 31.78125 6.390625 
Q 39.453125 6.390625 43.28125 13.890625 
Q 47.125 21.390625 47.125 36.375 
Q 47.125 51.421875 43.28125 58.90625 
Q 39.453125 66.40625 31.78125 66.40625 
z
M 31.78125 74.21875 
Q 44.046875 74.21875 50.515625 64.515625 
Q 56.984375 54.828125 56.984375 36.375 
Q 56.984375 17.96875 50.515625 8.265625 
Q 44.046875 -1.421875 31.78125 -1.421875 
Q 19.53125 -1.421875 13.0625 8.265625 
Q 6.59375 17.96875 6.59375 36.375 
Q 6.59375 54.828125 13.0625 64.515625 
Q 19.53125 74.21875 31.78125 74.21875 
z
" id="DejaVuSans-30"/>
       <path d="M 10.6875 12.40625 
L 21 12.40625 
L 21 0 
L 10.6875 0 
z
" id="DejaVuSans-2e"/>
       <path d="M 31.78125 34.625 
Q 24.75 34.625 20.71875 30.859375 
Q 16.703125 27.09375 16.703125 20.515625 
Q 16.703125 13.921875 20.71875 10.15625 
Q 24.75 6.390625 31.78125 6.390625 
Q 38.8125 6.390625 42.859375 10.171875 
Q 46.921875 13.96875 46.921875 20.515625 
Q 46.921875 27.09375 42.890625 30.859375 
Q 38.875 34.625 31.78125 34.625 
z
M 21.921875 38.8125 
Q 15.578125 40.375 12.03125 44.71875 
Q 8.5 49.078125 8.5 55.328125 
Q 8.5 64.0625 14.71875 69.140625 
Q 20.953125 74.21875 31.78125 74.21875 
Q 42.671875 74.21875 48.875 69.140625 
Q 55.078125 64.0625 55.078125 55.328125 
Q 55.078125 49.078125 51.53125 44.71875 
Q 48 40.375 41.703125 38.8125 
Q 48.828125 37.15625 52.796875 32.3125 
Q 56.78125 27.484375 56.78125 20.515625 
Q 56.78125 9.90625 50.3125 4.234375 
Q 43.84375 -1.421875 31.78125 -1.421875 
Q 19.734375 -1.421875 13.25 4.234375 
Q 6.78125 9.90625 6.78125 20.515625 
Q 6.78125 27.484375 10.78125 32.3125 
Q 14.796875 37.15625 21.921875 38.8125 
z
M 18.3125 54.390625 
Q 18.3125 48.734375 21.84375 45.5625 
Q 25.390625 42.390625 31.78125 42.390625 
Q 38.140625 42.390625 41.71875 45.5625 
Q 45.3125 48.734375 45.3125 54.390625 
Q 45.3125 60.0625 41.71875 63.234375 
Q 38.140625 66.40625 31.78125 66.40625 
Q 25.390625 66.40625 21.84375 63.234375 
Q 18.3125 60.0625 18.3125 54.390625 
z
" id="DejaVuSans-38"/>
      </defs>
      <g transform="translate(46.05242 266.598437)scale(0.1 -0.1)">
       <use xlink:href="#DejaVuSans-2212"/>
       <use x="83.789062" xlink:href="#DejaVuSans-30"/>
       <use x="147.412109" xlink:href="#DejaVuSans-2e"/>
       <use x="179.199219" xlink:href="#DejaVuSans-38"/>
      </g>
     </g>
    </g>
    <g id="xtick_2">
     <g id="line2d_2">
      <g>
       <use style="stroke:#000000;stroke-width:0.8;" x="114.562767" xlink:href="#m74a99227d6" y="252"/>
      </g>
     </g>
     <g id="text_2">
      <!-- −0.6 -->
      <defs>
       <path d="M 33.015625 40.375 
Q 26.375 40.375 22.484375 35.828125 
Q 18.609375 31.296875 18.609375 23.390625 
Q 18.609375 15.53125 22.484375 10.953125 
Q 26.375 6.390625 33.015625 6.390625 
Q 39.65625 6.390625 43.53125 10.953125 
Q 47.40625 15.53125 47.40625 23.390625 
Q 47.40625 31.296875 43.53125 35.828125 
Q 39.65625 40.375 33.015625 40.375 
z
M 52.59375 71.296875 
L 52.59375 62.3125 
Q 48.875 64.0625 45.09375 64.984375 
Q 41.3125 65.921875 37.59375 65.921875 
Q 27.828125 65.921875 22.671875 59.328125 
Q 17.53125 52.734375 16.796875 39.40625 
Q 19.671875 43.65625 24.015625 45.921875 
Q 28.375 48.1875 33.59375 48.1875 
Q 44.578125 48.1875 50.953125 41.515625 
Q 57.328125 34.859375 57.328125 23.390625 
Q 57.328125 12.15625 50.6875 5.359375 
Q 44.046875 -1.421875 33.015625 -1.421875 
Q 20.359375 -1.421875 13.671875 8.265625 
Q 6.984375 17.96875 6.984375 36.375 
Q 6.984375 53.65625 15.1875 63.9375 
Q 23.390625 74.21875 37.203125 74.21875 
Q 40.921875 74.21875 44.703125 73.484375 
Q 48.484375 72.75 52.59375 71.296875 
z
" id="DejaVuSans-36"/>
      </defs>
      <g transform="translate(102.421361 266.598437)scale(0.1 -0.1)">
       <use xlink:href="#DejaVuSans-2212"/>
       <use x="83.789062" xlink:href="#DejaVuSans-30"/>
       <use x="147.412109" xlink:href="#DejaVuSans-2e"/>
       <use x="179.199219" xlink:href="#DejaVuSans-36"/>
      </g>
     </g>
    </g>
    <g id="xtick_3">
     <g id="line2d_3">
      <g>
       <use style="stroke:#000000;stroke-width:0.8;" x="170.931708" xlink:href="#m74a99227d6" y="252"/>
      </g>
     </g>
     <g id="text_3">
      <!-- −0.4 -->
      <defs>
       <path d="M 37.796875 64.3125 
L 12.890625 25.390625 
L 37.796875 25.390625 
z
M 35.203125 72.90625 
L 47.609375 72.90625 
L 47.609375 25.390625 
L 58.015625 25.390625 
L 58.015625 17.1875 
L 47.609375 17.1875 
L 47.609375 0 
L 37.796875 0 
L 37.796875 17.1875 
L 4.890625 17.1875 
L 4.890625 26.703125 
z
" id="DejaVuSans-34"/>
      </defs>
      <g transform="translate(158.790302 266.598437)scale(0.1 -0.1)">
       <use xlink:href="#DejaVuSans-2212"/>
       <use x="83.789062" xlink:href="#DejaVuSans-30"/>
       <use x="147.412109" xlink:href="#DejaVuSans-2e"/>
       <use x="179.199219" xlink:href="#DejaVuSans-34"/>
      </g>
     </g>
    </g>
    <g id="xtick_4">
     <g id="line2d_4">
      <g>
       <use style="stroke:#000000;stroke-width:0.8;" x="227.300649" xlink:href="#m74a99227d6" y="252"/>
      </g>
     </g>
     <g id="text_4">
      <!-- −0.2 -->
      <defs>
       <path d="M 19.1875 8.296875 
L 53.609375 8.296875 
L 53.609375 0 
L 7.328125 0 
L 7.328125 8.296875 
Q 12.9375 14.109375 22.625 23.890625 
Q 32.328125 33.6875 34.8125 36.53125 
Q 39.546875 41.84375 41.421875 45.53125 
Q 43.3125 49.21875 43.3125 52.78125 
Q 43.3125 58.59375 39.234375 62.25 
Q 35.15625 65.921875 28.609375 65.921875 
Q 23.96875 65.921875 18.8125 64.3125 
Q 13.671875 62.703125 7.8125 59.421875 
L 7.8125 69.390625 
Q 13.765625 71.78125 18.9375 73 
Q 24.125 74.21875 28.421875 74.21875 
Q 39.75 74.21875 46.484375 68.546875 
Q 53.21875 62.890625 53.21875 53.421875 
Q 53.21875 48.921875 51.53125 44.890625 
Q 49.859375 40.875 45.40625 35.40625 
Q 44.1875 33.984375 37.640625 27.21875 
Q 31.109375 20.453125 19.1875 8.296875 
z
" id="DejaVuSans-32"/>
      </defs>
      <g transform="translate(215.159242 266.598437)scale(0.1 -0.1)">
       <use xlink:href="#DejaVuSans-2212"/>
       <use x="83.789062" xlink:href="#DejaVuSans-30"/>
       <use x="147.412109" xlink:href="#DejaVuSans-2e"/>
       <use x="179.199219" xlink:href="#DejaVuSans-32"/>
      </g>
     </g>
    </g>
    <g id="xtick_5">
     <g id="line2d_5">
      <g>
       <use style="stroke:#000000;stroke-width:0.8;" x="283.669589" xlink:href="#m74a99227d6" y="252"/>
      </g>
     </g>
     <g id="text_5">
      <!-- 0.0 -->
      <g transform="translate(275.718027 266.598437)scale(0.1 -0.1)">
       <use xlink:href="#DejaVuSans-30"/>
       <use x="63.623047" xlink:href="#DejaVuSans-2e"/>
       <use x="95.410156" xlink:href="#DejaVuSans-30"/>
      </g>
     </g>
    </g>
    <g id="xtick_6">
     <g id="line2d_6">
      <g>
       <use style="stroke:#000000;stroke-width:0.8;" x="340.03853" xlink:href="#m74a99227d6" y="252"/>
      </g>
     </g>
     <g id="text_6">
      <!-- 0.2 -->
      <g transform="translate(332.086968 266.598437)scale(0.1 -0.1)">
       <use xlink:href="#DejaVuSans-30"/>
       <use x="63.623047" xlink:href="#DejaVuSans-2e"/>
       <use x="95.410156" xlink:href="#DejaVuSans-32"/>
      </g>
     </g>
    </g>
   </g>
   <g id="matplotlib.axis_2">
    <g id="ytick_1"/>
    <g id="ytick_2"/>
    <g id="ytick_3"/>
    <g id="ytick_4"/>
    <g id="ytick_5"/>
    <g id="ytick_6"/>
    <g id="ytick_7"/>
    <g id="ytick_8"/>
   </g>
   <g id="line2d_7">
    <path clip-path="url(#p6a77f117c0)" d="M 277.810433 251.607895 
L 278.777821 250.263349 
L 279.745209 245.863003 
L 280.712596 234.620307 
L 281.679984 212.316022 
L 282.647372 178.309306 
L 283.614759 139.335497 
L 284.582147 107.659548 
L 285.549535 93.20387 
L 286.516923 97.146534 
L 287.48431 113.177468 
L 288.451698 133.499446 
L 289.419086 152.963613 
L 290.386474 169.369072 
L 291.353861 182.259106 
L 292.321249 192.145709 
L 293.288637 200.081647 
L 294.256024 207.014683 
L 295.223412 213.223033 
L 296.1908 218.469994 
L 297.158188 222.674005 
L 298.125575 226.228471 
L 299.092963 229.635226 
L 300.060351 232.992866 
L 301.027739 235.950731 
L 301.995126 238.121955 
L 302.962514 239.496124 
L 303.929902 240.473072 
L 304.897289 241.517047 
L 305.864677 242.773463 
L 306.832065 244.028936 
L 307.799453 245.035752 
L 308.76684 245.817471 
L 309.734228 246.618277 
L 310.701616 247.605904 
L 311.669004 248.6983 
L 312.636391 249.656334 
L 313.603779 250.271273 
L 314.571167 250.469282 
L 315.538555 250.310985 
L 316.505942 249.946422 
L 317.47333 249.57513 
L 318.440718 249.401953 
L 319.408105 249.551773 
L 320.375493 249.98159 
L 321.342881 250.496729 
L 322.310269 250.887541 
L 323.277656 251.062643 
L 324.245044 251.068873 
L 325.212432 251.014737 
L 326.17982 250.986985 
L 327.147207 251.020677 
L 328.114595 251.110357 
L 329.081983 251.225451 
L 330.04937 251.329707 
L 331.016758 251.410724 
L 331.984146 251.488118 
L 332.951534 251.58112 
L 333.918921 251.675814 
L 334.886309 251.738087 
L 335.853697 251.756437 
L 336.821085 251.758979 
L 337.788472 251.783531 
L 338.75586 251.839352 
L 339.723248 251.904918 
L 340.690635 251.95563 
L 341.658023 251.983733 
L 342.625411 251.99532 
L 343.592799 251.998944 
L 344.560186 251.999813 
L 345.527574 251.999971 
L 346.494962 251.99997 
L 347.46235 251.999802 
L 348.429737 251.998893 
L 349.397125 251.995127 
L 350.364513 251.983167 
L 351.3319 251.954295 
L 352.299288 251.902175 
L 353.266676 251.833688 
L 354.234064 251.771279 
L 355.201451 251.735324 
L 356.168839 251.724427 
L 357.136227 251.724073 
L 358.103615 251.733 
L 359.071002 251.764465 
L 360.03839 251.818451 
L 361.005778 251.865946 
L 361.973165 251.863502 
L 362.940553 251.777729 
L 363.907941 251.60654 
L 364.875329 251.396195 
L 365.842716 251.235261 
L 366.810104 251.206604 
L 367.777492 251.326811 
L 368.74488 251.533688 
L 369.712267 251.737026 
L 370.679655 251.87969 
L 371.647043 251.95553 
L 372.61443 251.986776 
L 373.581818 251.996849 
" style="fill:none;stroke:#1f77b4;stroke-linecap:square;stroke-width:3;"/>
   </g>
   <g id="line2d_8">
    <path clip-path="url(#p6a77f117c0)" d="M 81.86711 251.999398 
L 84.342197 251.997302 
L 86.817283 251.990903 
L 89.29237 251.976905 
L 91.767457 251.9558 
L 94.242544 251.93591 
L 96.717631 251.928233 
L 99.192718 251.933618 
L 101.667804 251.939747 
L 104.142891 251.935631 
L 106.617978 251.924986 
L 109.093065 251.9199 
L 111.568152 251.924846 
L 114.043238 251.933846 
L 116.518325 251.940543 
L 118.993412 251.943609 
L 121.468499 251.944231 
L 123.943586 251.943625 
L 126.418673 251.941752 
L 128.893759 251.936375 
L 131.368846 251.922914 
L 133.843933 251.894702 
L 136.31902 251.846767 
L 138.794107 251.783708 
L 141.269193 251.722293 
L 143.74428 251.682491 
L 146.219367 251.674893 
L 148.694454 251.694577 
L 151.169541 251.721927 
L 153.644628 251.729781 
L 156.119714 251.69869 
L 158.594801 251.632403 
L 161.069888 251.557176 
L 163.544975 251.499275 
L 166.020062 251.459715 
L 168.495148 251.415598 
L 170.970235 251.347018 
L 173.445322 251.25486 
L 175.920409 251.155916 
L 178.395496 251.074855 
L 180.870583 251.035311 
L 183.345669 251.040742 
L 185.820756 251.066193 
L 188.295843 251.078184 
L 190.77093 251.055567 
L 193.246017 250.987173 
L 195.721104 250.86511 
L 198.19619 250.693509 
L 200.671277 250.497629 
L 203.146364 250.311166 
L 205.621451 250.145012 
L 208.096538 249.96524 
L 210.571624 249.706825 
L 213.046711 249.317549 
L 215.521798 248.795389 
L 217.996885 248.188506 
L 220.471972 247.568251 
L 222.947059 247.007383 
L 225.422145 246.559593 
L 227.897232 246.227017 
L 230.372319 245.954812 
L 232.847406 245.66544 
L 235.322493 245.274636 
L 237.797579 244.689957 
L 240.272666 243.846496 
L 242.747753 242.743353 
L 245.22284 241.418497 
L 247.697927 239.903205 
L 250.173014 238.205879 
L 252.6481 236.310824 
L 255.123187 234.206265 
L 257.598274 231.951151 
L 260.073361 229.677496 
L 262.548448 227.437564 
L 265.023534 225.030966 
L 267.498621 222.06848 
L 269.973708 218.276222 
L 272.448795 213.77024 
L 274.923882 209.160956 
L 277.398969 205.565715 
L 279.874055 204.493127 
L 282.349142 207.30171 
L 284.824229 214.194736 
L 287.299316 223.618916 
L 289.774403 233.030181 
L 292.249489 240.4694 
L 294.724576 245.391751 
L 297.199663 248.275907 
L 299.67475 249.858393 
L 302.149837 250.715064 
L 304.624924 251.197068 
L 307.10001 251.490276 
L 309.575097 251.682089 
L 312.050184 251.811154 
L 314.525271 251.896362 
L 317.000358 251.949294 
L 319.475445 251.978753 
L 321.950531 251.992661 
L 324.425618 251.997974 
L 326.900705 251.999563 
" style="fill:none;stroke:#ff7f0e;stroke-linecap:square;stroke-width:3;"/>
   </g>
   <g id="line2d_9">
    <path clip-path="url(#p6a77f117c0)" d="M 272.064592 251.996458 
L 273.038533 251.985684 
L 274.012474 251.948676 
L 274.986415 251.83214 
L 275.960356 251.486424 
L 276.934297 250.515928 
L 277.908238 247.994727 
L 278.88218 242.141943 
L 279.856121 230.393649 
L 280.830062 210.530701 
L 281.804003 182.887339 
L 282.777944 152.098206 
L 283.751885 126.096726 
L 284.725826 112.087249 
L 285.699767 112.481001 
L 286.673708 124.190737 
L 287.647649 141.391116 
L 288.62159 158.92794 
L 289.595531 174.008875 
L 290.569472 186.000291 
L 291.543413 195.381691 
L 292.517354 202.799436 
L 293.491295 208.637394 
L 294.465237 213.081896 
L 295.439178 216.395584 
L 296.413119 219.078247 
L 297.38706 221.750604 
L 298.361001 224.84031 
L 299.334942 228.335277 
L 300.308883 231.836924 
L 301.282824 234.881053 
L 302.256765 237.248999 
L 303.230706 239.031567 
L 304.204647 240.467456 
L 305.178588 241.752487 
L 306.152529 242.958965 
L 307.12647 244.056115 
L 308.100411 244.962737 
L 309.074352 245.598008 
L 310.048294 245.929033 
L 311.022235 246.00683 
L 311.996176 245.969005 
L 312.970117 245.994357 
L 313.944058 246.222537 
L 314.917999 246.684402 
L 315.89194 247.292647 
L 316.865881 247.90143 
L 317.839822 248.392859 
L 318.813763 248.734877 
L 319.787704 248.981718 
L 320.761645 249.225582 
L 321.735586 249.533521 
L 322.709527 249.906031 
L 323.683468 250.277013 
L 324.657409 250.552915 
L 325.631351 250.669673 
L 326.605292 250.633097 
L 327.579233 250.514021 
L 328.553174 250.400138 
L 329.527115 250.341754 
L 330.501056 250.33513 
L 331.474997 250.352733 
L 332.448938 250.384772 
L 333.422879 250.448076 
L 334.39682 250.558316 
L 335.370761 250.703455 
L 336.344702 250.849074 
L 337.318643 250.964933 
L 338.292584 251.043217 
L 339.266525 251.09632 
L 340.240466 251.142914 
L 341.214407 251.195922 
L 342.188349 251.260018 
L 343.16229 251.335741 
L 344.136231 251.421486 
L 345.110172 251.511441 
L 346.084113 251.596387 
L 347.058054 251.670255 
L 348.031995 251.734938 
L 349.005936 251.796158 
L 349.979877 251.854458 
L 350.953818 251.901596 
L 351.927759 251.925592 
L 352.9017 251.918571 
L 353.875641 251.881437 
L 354.849582 251.823791 
L 355.823523 251.758946 
L 356.797464 251.695734 
L 357.771406 251.633655 
L 358.745347 251.568558 
L 359.719288 251.50655 
L 360.693229 251.471338 
L 361.66717 251.49148 
L 362.641111 251.575043 
L 363.615052 251.697858 
L 364.588993 251.819431 
L 365.562934 251.909906 
L 366.536875 251.962613 
L 367.510816 251.987124 
L 368.484757 251.996324 
" style="fill:none;stroke:#2ca02c;stroke-linecap:square;stroke-width:3;"/>
   </g>
   <g id="line2d_10">
    <path clip-path="url(#p6a77f117c0)" d="M 69.218182 251.999231 
L 71.590243 251.997739 
L 73.962305 251.994263 
L 76.334366 251.987442 
L 78.706427 251.976283 
L 81.078489 251.961346 
L 83.45055 251.94559 
L 85.822611 251.933685 
L 88.194673 251.929448 
L 90.566734 251.932839 
L 92.938796 251.938779 
L 95.310857 251.938923 
L 97.682918 251.925422 
L 100.05498 251.894613 
L 102.427041 251.848842 
L 104.799103 251.795623 
L 107.171164 251.744722 
L 109.543225 251.705071 
L 111.915287 251.683264 
L 114.287348 251.683204 
L 116.659409 251.704888 
L 119.031471 251.741984 
L 121.403532 251.780978 
L 123.775594 251.804884 
L 126.147655 251.800733 
L 128.519716 251.766327 
L 130.891778 251.711809 
L 133.263839 251.654963 
L 135.6359 251.6128 
L 138.007962 251.593662 
L 140.380023 251.593272 
L 142.752085 251.59612 
L 145.124146 251.582015 
L 147.496207 251.53643 
L 149.868269 251.460781 
L 152.24033 251.375891 
L 154.612391 251.313328 
L 156.984453 251.297665 
L 159.356514 251.331446 
L 161.728576 251.39392 
L 164.100637 251.45367 
L 166.472698 251.484899 
L 168.84476 251.476956 
L 171.216821 251.434185 
L 173.588883 251.369451 
L 175.960944 251.295848 
L 178.333005 251.220126 
L 180.705067 251.140348 
L 183.077128 251.048645 
L 185.449189 250.937486 
L 187.821251 250.805928 
L 190.193312 250.6619 
L 192.565374 250.518372 
L 194.937435 250.385409 
L 197.309496 250.263754 
L 199.681558 250.144962 
L 202.053619 250.01796 
L 204.42568 249.877032 
L 206.797742 249.725369 
L 209.169803 249.57107 
L 211.541865 249.416195 
L 213.913926 249.244231 
L 216.285987 249.016739 
L 218.658049 248.689719 
L 221.03011 248.246346 
L 223.402171 247.721948 
L 225.774233 247.192742 
L 228.146294 246.726811 
L 230.518356 246.333373 
L 232.890417 245.953265 
L 235.262478 245.495985 
L 237.63454 244.885158 
L 240.006601 244.074031 
L 242.378663 243.033608 
L 244.750724 241.746173 
L 247.122785 240.220174 
L 249.494847 238.504186 
L 251.866908 236.669804 
L 254.238969 234.767079 
L 256.611031 232.789694 
L 258.983092 230.679492 
L 261.355154 228.360439 
L 263.727215 225.764506 
L 266.099276 222.825505 
L 268.471338 219.463915 
L 270.843399 215.630548 
L 273.21546 211.467032 
L 275.587522 207.536356 
L 277.959583 204.921634 
L 280.331645 204.951812 
L 282.703706 208.543023 
L 285.075767 215.536455 
L 287.447829 224.571534 
L 289.81989 233.682292 
L 292.191951 241.215054 
L 294.564013 246.430196 
L 296.936074 249.486154 
L 299.308136 251.011119 
L 301.680197 251.66163 
L 304.052258 251.899437 
" style="fill:none;stroke:#d62728;stroke-linecap:square;stroke-width:3;"/>
   </g>
   <g id="line2d_11">
    <path clip-path="url(#p6a77f117c0)" d="M 278.048257 251.769479 
L 278.859169 251.046321 
L 279.670082 248.729345 
L 280.480995 242.672365 
L 281.291908 229.785713 
L 282.10282 207.568124 
L 282.913733 176.770166 
L 283.724646 142.976641 
L 284.535559 114.668358 
L 285.346471 98.468248 
L 286.157384 95.585586 
L 286.968297 102.415216 
L 287.779209 113.988608 
L 288.590122 126.842552 
L 289.401035 139.607072 
L 290.211948 152.098731 
L 291.02286 164.336269 
L 291.833773 176.117384 
L 292.644686 187.048842 
L 293.455599 196.7425 
L 294.266511 205.003779 
L 295.077424 211.921133 
L 295.888337 217.786225 
L 296.699249 222.86741 
L 297.510162 227.21616 
L 298.321075 230.702223 
L 299.131988 233.253912 
L 299.9429 235.052856 
L 300.753813 236.479134 
L 301.564726 237.873321 
L 302.375638 239.355422 
L 303.186551 240.845997 
L 303.997464 242.224548 
L 304.808377 243.457698 
L 305.619289 244.59616 
L 306.430202 245.680748 
L 307.241115 246.673383 
L 308.052028 247.481066 
L 308.86294 248.037395 
L 309.673853 248.35595 
L 310.484766 248.515017 
L 311.295678 248.608134 
L 312.106591 248.706503 
L 312.917504 248.841131 
L 313.728417 249.001912 
L 314.539329 249.160214 
L 315.350242 249.302155 
L 316.161155 249.442623 
L 316.972068 249.613248 
L 317.78298 249.839579 
L 318.593893 250.117318 
L 319.404806 250.399867 
L 320.215718 250.618404 
L 321.026631 250.731519 
L 321.837544 250.761228 
L 322.648457 250.775061 
L 323.459369 250.829011 
L 324.270282 250.930137 
L 325.081195 251.051549 
L 325.892108 251.169472 
L 326.70302 251.277827 
L 327.513933 251.377923 
L 328.324846 251.467826 
L 329.135758 251.540262 
L 329.946671 251.583007 
L 330.757584 251.584198 
L 331.568497 251.54693 
L 332.379409 251.498598 
L 333.190322 251.47612 
L 334.001235 251.49774 
L 334.812148 251.551084 
L 335.62306 251.603405 
L 336.433973 251.615806 
L 337.244886 251.556186 
L 338.055798 251.419427 
L 338.866711 251.244307 
L 339.677624 251.100476 
L 340.488537 251.045695 
L 341.299449 251.092598 
L 342.110362 251.214891 
L 342.921275 251.373367 
L 343.732187 251.526049 
L 344.5431 251.624122 
L 345.354013 251.622162 
L 346.164926 251.510041 
L 346.975838 251.339102 
L 347.786751 251.206881 
L 348.597664 251.195631 
L 349.408577 251.311513 
L 350.219489 251.484351 
L 351.030402 251.629991 
L 351.841315 251.712717 
L 352.652227 251.753236 
L 353.46314 251.790035 
L 354.274053 251.841353 
L 355.084966 251.899138 
L 355.895878 251.947119 
L 356.706791 251.977291 
L 357.517704 251.99203 
L 358.328617 251.997716 
" style="fill:none;stroke:#9467bd;stroke-linecap:square;stroke-width:3;"/>
   </g>
   <g id="line2d_12">
    <path clip-path="url(#p6a77f117c0)" d="M 138.076115 251.998892 
L 139.655999 251.996052 
L 141.235884 251.988598 
L 142.815768 251.973327 
L 144.395652 251.949452 
L 145.975537 251.922396 
L 147.555421 251.903478 
L 149.135305 251.902701 
L 150.71519 251.92031 
L 152.295074 251.946129 
L 153.874958 251.967072 
L 155.454842 251.974299 
L 157.034727 251.964897 
L 158.614611 251.941145 
L 160.194495 251.9103 
L 161.77438 251.882345 
L 163.354264 251.864422 
L 164.934148 251.857691 
L 166.514033 251.860795 
L 168.093917 251.873635 
L 169.673801 251.894358 
L 171.253685 251.914614 
L 172.83357 251.922671 
L 174.413454 251.912897 
L 175.993338 251.890874 
L 177.573223 251.868385 
L 179.153107 251.85435 
L 180.732991 251.851497 
L 182.312876 251.859102 
L 183.89276 251.873424 
L 185.472644 251.883857 
L 187.052528 251.873396 
L 188.632413 251.827627 
L 190.212297 251.743544 
L 191.792181 251.628741 
L 193.372066 251.494984 
L 194.95195 251.357732 
L 196.531834 251.240417 
L 198.111719 251.168005 
L 199.691603 251.148669 
L 201.271487 251.167047 
L 202.851372 251.200074 
L 204.431256 251.231134 
L 206.01114 251.243667 
L 207.591024 251.21433 
L 209.170909 251.128611 
L 210.750793 251.00223 
L 212.330677 250.875847 
L 213.910562 250.78432 
L 215.490446 250.733923 
L 217.07033 250.70553 
L 218.650215 250.669165 
L 220.230099 250.59676 
L 221.809983 250.475278 
L 223.389867 250.312091 
L 224.969752 250.119119 
L 226.549636 249.890271 
L 228.12952 249.59931 
L 229.709405 249.217452 
L 231.289289 248.733929 
L 232.869173 248.174619 
L 234.449058 247.609783 
L 236.028942 247.12669 
L 237.608826 246.76377 
L 239.18871 246.452084 
L 240.768595 246.026389 
L 242.348479 245.317048 
L 243.928363 244.25664 
L 245.508248 242.917229 
L 247.088132 241.457075 
L 248.668016 240.023819 
L 250.247901 238.676348 
L 251.827785 237.361759 
L 253.407669 235.949236 
L 254.987553 234.303761 
L 256.567438 232.367995 
L 258.147322 230.190567 
L 259.727206 227.85775 
L 261.307091 225.393472 
L 262.886975 222.736093 
L 264.466859 219.775848 
L 266.046744 216.358627 
L 267.626628 212.288269 
L 269.206512 207.436661 
L 270.786397 201.906317 
L 272.366281 196.065566 
L 273.946165 190.442207 
L 275.526049 185.681135 
L 277.105934 182.700893 
L 278.685818 182.834577 
L 280.265702 187.487371 
L 281.845587 197.160469 
L 283.425471 210.534377 
L 285.005355 224.686201 
L 286.58524 236.58391 
L 288.165124 244.638644 
L 289.745008 249.054241 
L 291.324892 251.019147 
L 292.904777 251.729685 
L 294.484661 251.938587 
" style="fill:none;stroke:#8c564b;stroke-linecap:square;stroke-width:3;"/>
   </g>
   <g id="line2d_13">
    <path clip-path="url(#p6a77f117c0)" d="M 214.207409 251.998743 
L 215.747112 251.980354 
L 217.286815 251.914158 
L 218.826517 251.895145 
L 220.36622 251.963055 
L 221.905922 251.977907 
L 223.445625 251.915786 
L 224.985328 251.894089 
L 226.52503 251.961645 
L 228.064733 251.978278 
L 229.604435 251.916913 
L 231.144138 251.892496 
L 232.683841 251.945289 
L 234.223543 251.916302 
L 235.763246 251.89008 
L 237.302948 251.935901 
L 238.842651 251.899846 
L 240.382353 251.830296 
L 241.922056 251.658433 
L 243.461759 251.509116 
L 245.001461 251.540398 
L 246.541164 251.59813 
L 248.080866 251.622984 
L 249.620569 251.511527 
L 251.160272 251.548015 
L 252.699974 251.582325 
L 254.239677 251.529708 
L 255.779379 251.507729 
L 257.319082 251.28744 
L 258.858785 250.704335 
L 260.398487 250.371126 
L 261.93819 250.52153 
L 263.477892 250.260901 
L 265.017595 249.595167 
L 266.557298 248.997705 
L 268.097 248.075774 
L 269.636703 245.932779 
L 271.176405 243.581602 
L 272.716108 241.063725 
L 274.25581 236.717845 
L 275.795513 229.799828 
L 277.335216 219.148619 
L 278.874918 199.481238 
L 280.414621 158.93538 
L 281.954323 89.016583 
L 283.494026 44.914286 
L 285.033729 95.997935 
L 286.573431 167.252645 
L 288.113134 203.111979 
L 289.652836 218.385498 
L 291.192539 227.552184 
L 292.732242 234.272317 
L 294.271944 239.144025 
L 295.811647 242.673134 
L 297.351349 244.426109 
L 298.891052 245.361722 
L 300.430755 246.34862 
L 301.970457 247.94802 
L 303.51016 249.394633 
L 305.049862 249.989291 
L 306.589565 250.096745 
L 308.129267 250.034382 
L 309.66897 250.305553 
L 311.208673 250.770793 
L 312.748375 251.104871 
L 314.288078 251.340072 
L 315.82778 251.481817 
L 317.367483 251.587952 
L 318.907186 251.538239 
L 320.446888 251.566653 
L 321.986591 251.69314 
L 323.526293 251.693165 
L 325.065996 251.767472 
L 326.605699 251.920584 
L 328.145401 251.964024 
L 329.685104 251.903536 
L 331.224806 251.90339 
L 332.764509 251.97286 
L 334.304212 251.997695 
L 335.843914 251.9945 
L 337.383617 251.949847 
L 338.923319 251.848929 
L 340.463022 251.817693 
L 342.002724 251.905753 
L 343.542427 251.981495 
L 345.08213 251.979446 
L 346.621832 251.892284 
L 348.161535 251.798431 
L 349.701237 251.863017 
L 351.24094 251.967625 
L 352.780643 251.997586 
L 354.320345 251.999947 
L 355.860048 251.999999 
L 357.39975 251.999909 
L 358.939453 251.996586 
L 360.479156 251.964215 
L 362.018858 251.895165 
L 363.558561 251.914158 
L 365.098263 251.980354 
L 366.637966 251.998743 
" style="fill:none;stroke:#e377c2;stroke-linecap:square;stroke-width:3;"/>
   </g>
   <g id="patch_3">
    <path d="M 54 252 
L 388.8 252 
" style="fill:none;stroke:#000000;stroke-linecap:square;stroke-linejoin:miter;stroke-width:0.8;"/>
   </g>
   <g id="legend_1">
    <g id="patch_4">
     <path d="M 343.4375 145.306875 
L 381.8 145.306875 
Q 383.8 145.306875 383.8 143.306875 
L 383.8 41.56 
Q 383.8 39.56 381.8 39.56 
L 343.4375 39.56 
Q 341.4375 39.56 341.4375 41.56 
L 341.4375 143.306875 
Q 341.4375 145.306875 343.4375 145.306875 
z
" style="fill:#ffffff;opacity:0.8;stroke:#cccccc;stroke-linejoin:miter;"/>
    </g>
    <g id="line2d_14">
     <path d="M 345.4375 47.658437 
L 365.4375 47.658437 
" style="fill:none;stroke:#1f77b4;stroke-linecap:square;stroke-width:3;"/>
    </g>
    <g id="line2d_15"/>
    <g id="text_7">
     <!-- 0 -->
     <g transform="translate(373.4375 51.158437)scale(0.1 -0.1)">
      <use xlink:href="#DejaVuSans-30"/>
     </g>
    </g>
    <g id="line2d_16">
     <path d="M 345.4375 62.336563 
L 365.4375 62.336563 
" style="fill:none;stroke:#ff7f0e;stroke-linecap:square;stroke-width:3;"/>
    </g>
    <g id="line2d_17"/>
    <g id="text_8">
     <!-- 1 -->
     <defs>
      <path d="M 12.40625 8.296875 
L 28.515625 8.296875 
L 28.515625 63.921875 
L 10.984375 60.40625 
L 10.984375 69.390625 
L 28.421875 72.90625 
L 38.28125 72.90625 
L 38.28125 8.296875 
L 54.390625 8.296875 
L 54.390625 0 
L 12.40625 0 
z
" id="DejaVuSans-31"/>
     </defs>
     <g transform="translate(373.4375 65.836563)scale(0.1 -0.1)">
      <use xlink:href="#DejaVuSans-31"/>
     </g>
    </g>
    <g id="line2d_18">
     <path d="M 345.4375 77.014687 
L 365.4375 77.014687 
" style="fill:none;stroke:#2ca02c;stroke-linecap:square;stroke-width:3;"/>
    </g>
    <g id="line2d_19"/>
    <g id="text_9">
     <!-- 2 -->
     <g transform="translate(373.4375 80.514687)scale(0.1 -0.1)">
      <use xlink:href="#DejaVuSans-32"/>
     </g>
    </g>
    <g id="line2d_20">
     <path d="M 345.4375 91.692813 
L 365.4375 91.692813 
" style="fill:none;stroke:#d62728;stroke-linecap:square;stroke-width:3;"/>
    </g>
    <g id="line2d_21"/>
    <g id="text_10">
     <!-- 3 -->
     <defs>
      <path d="M 40.578125 39.3125 
Q 47.65625 37.796875 51.625 33 
Q 55.609375 28.21875 55.609375 21.1875 
Q 55.609375 10.40625 48.1875 4.484375 
Q 40.765625 -1.421875 27.09375 -1.421875 
Q 22.515625 -1.421875 17.65625 -0.515625 
Q 12.796875 0.390625 7.625 2.203125 
L 7.625 11.71875 
Q 11.71875 9.328125 16.59375 8.109375 
Q 21.484375 6.890625 26.8125 6.890625 
Q 36.078125 6.890625 40.9375 10.546875 
Q 45.796875 14.203125 45.796875 21.1875 
Q 45.796875 27.640625 41.28125 31.265625 
Q 36.765625 34.90625 28.71875 34.90625 
L 20.21875 34.90625 
L 20.21875 43.015625 
L 29.109375 43.015625 
Q 36.375 43.015625 40.234375 45.921875 
Q 44.09375 48.828125 44.09375 54.296875 
Q 44.09375 59.90625 40.109375 62.90625 
Q 36.140625 65.921875 28.71875 65.921875 
Q 24.65625 65.921875 20.015625 65.03125 
Q 15.375 64.15625 9.8125 62.3125 
L 9.8125 71.09375 
Q 15.4375 72.65625 20.34375 73.4375 
Q 25.25 74.21875 29.59375 74.21875 
Q 40.828125 74.21875 47.359375 69.109375 
Q 53.90625 64.015625 53.90625 55.328125 
Q 53.90625 49.265625 50.4375 45.09375 
Q 46.96875 40.921875 40.578125 39.3125 
z
" id="DejaVuSans-33"/>
     </defs>
     <g transform="translate(373.4375 95.192813)scale(0.1 -0.1)">
      <use xlink:href="#DejaVuSans-33"/>
     </g>
    </g>
    <g id="line2d_22">
     <path d="M 345.4375 106.370937 
L 365.4375 106.370937 
" style="fill:none;stroke:#9467bd;stroke-linecap:square;stroke-width:3;"/>
    </g>
    <g id="line2d_23"/>
    <g id="text_11">
     <!-- 4 -->
     <g transform="translate(373.4375 109.870937)scale(0.1 -0.1)">
      <use xlink:href="#DejaVuSans-34"/>
     </g>
    </g>
    <g id="line2d_24">
     <path d="M 345.4375 121.049062 
L 365.4375 121.049062 
" style="fill:none;stroke:#8c564b;stroke-linecap:square;stroke-width:3;"/>
    </g>
    <g id="line2d_25"/>
    <g id="text_12">
     <!-- 5 -->
     <defs>
      <path d="M 10.796875 72.90625 
L 49.515625 72.90625 
L 49.515625 64.59375 
L 19.828125 64.59375 
L 19.828125 46.734375 
Q 21.96875 47.46875 24.109375 47.828125 
Q 26.265625 48.1875 28.421875 48.1875 
Q 40.625 48.1875 47.75 41.5 
Q 54.890625 34.8125 54.890625 23.390625 
Q 54.890625 11.625 47.5625 5.09375 
Q 40.234375 -1.421875 26.90625 -1.421875 
Q 22.3125 -1.421875 17.546875 -0.640625 
Q 12.796875 0.140625 7.71875 1.703125 
L 7.71875 11.625 
Q 12.109375 9.234375 16.796875 8.0625 
Q 21.484375 6.890625 26.703125 6.890625 
Q 35.15625 6.890625 40.078125 11.328125 
Q 45.015625 15.765625 45.015625 23.390625 
Q 45.015625 31 40.078125 35.4375 
Q 35.15625 39.890625 26.703125 39.890625 
Q 22.75 39.890625 18.8125 39.015625 
Q 14.890625 38.140625 10.796875 36.28125 
z
" id="DejaVuSans-35"/>
     </defs>
     <g transform="translate(373.4375 124.549062)scale(0.1 -0.1)">
      <use xlink:href="#DejaVuSans-35"/>
     </g>
    </g>
    <g id="line2d_26">
     <path d="M 345.4375 135.727187 
L 365.4375 135.727187 
" style="fill:none;stroke:#e377c2;stroke-linecap:square;stroke-width:3;"/>
    </g>
    <g id="line2d_27"/>
    <g id="text_13">
     <!-- 6 -->
     <g transform="translate(373.4375 139.227187)scale(0.1 -0.1)">
      <use xlink:href="#DejaVuSans-36"/>
     </g>
    </g>
   </g>
  </g>
 </g>
 <defs>
  <clipPath id="p6a77f117c0">
   <rect height="217.44" width="334.8" x="54" y="34.56"/>
  </clipPath>
 </defs>
</svg>
